<svg width="19" height="19" viewBox="0 0 19 19" fill="none" xmlns="http://www.w3.org/2000/svg">
<path fill-rule="evenodd" clip-rule="evenodd" d="M0.769653 9.8336C0.769653 4.82765 4.82777 0.769531 9.83372 0.769531C14.8396 0.769531 18.8978 4.82764 18.8978 9.8336C18.8978 14.8395 14.8396 18.8977 9.83372 18.8977C8.26854 18.8977 6.7944 18.5004 5.5084 17.801L1.93936 18.4654C1.73442 18.5036 1.52385 18.4382 1.37646 18.2908C1.22905 18.1434 1.16377 17.9329 1.20192 17.7279L1.86641 14.1589C1.1669 12.8729 0.769653 11.3988 0.769653 9.8336ZM5.82867 8.14726C5.82867 7.51488 6.11179 7.51488 6.46104 7.51488H13.2064C13.5556 7.51488 13.8388 7.51488 13.8388 8.14726C13.8388 8.77964 13.5556 8.77964 13.2064 8.77964H6.46104C6.11179 8.77964 5.82867 8.77964 5.82867 8.14726ZM6.46104 10.8876C6.11179 10.8876 5.82867 10.8986 5.82867 11.5199C5.82867 12.1523 6.11179 12.1523 6.46104 12.1523H9.83372C10.183 12.1523 10.4661 12.1523 10.4661 11.5199C10.4661 10.8876 10.183 10.8876 9.83372 10.8876H6.46104Z" fill="white"/>
</svg>
