<svg width="100" height="100" viewBox="0 0 100 100" fill="none" xmlns="http://www.w3.org/2000/svg">
<g clip-path="url(#clip0_4290_4236)">
<path d="M99.7 0H0.3C0.134315 0 0 0.134314 0 0.299999V39.6079C0 39.7736 0.134317 39.9079 0.300002 39.9079H99.7C99.8657 39.9079 100 39.7736 100 39.6079V0.3C100 0.134315 99.8657 0 99.7 0Z" fill="black"/>
<path d="M46.978 45.8086H0.3C0.134315 45.8086 0 45.9429 0 46.1086V99.7C0 99.8657 0.134315 100 0.3 100H46.978C47.1437 100 47.278 99.8657 47.278 99.7V46.1086C47.278 45.9429 47.1437 45.8086 46.978 45.8086Z" fill="black"/>
<path d="M99.7001 45.8086H53.0222C52.8565 45.8086 52.7222 45.9429 52.7222 46.1086V69.6566C52.7222 69.8223 52.8565 69.9566 53.0222 69.9566H99.7001C99.8658 69.9566 100 69.8223 100 69.6566V46.1086C100 45.9429 99.8658 45.8086 99.7001 45.8086Z" fill="black"/>
<path d="M73.344 75.852H53.0222C52.8565 75.852 52.7222 75.9863 52.7222 76.152V99.7C52.7222 99.8657 52.8565 100 53.0222 100H73.344C73.5097 100 73.644 99.8657 73.644 99.7V76.152C73.644 75.9863 73.5097 75.852 73.344 75.852Z" fill="black"/>
<path d="M99.7 75.852H79.3781C79.2124 75.852 79.0781 75.9863 79.0781 76.152V99.7C79.0781 99.8657 79.2124 100 79.3781 100H99.7C99.8656 100 100 99.8657 100 99.7V76.152C100 75.9863 99.8656 75.852 99.7 75.852Z" fill="black"/>
</g>
<defs>
<clipPath id="clip0_4290_4236">
<rect width="100" height="100" fill="white"/>
</clipPath>
</defs>
</svg>
