<svg width="121" height="125" viewBox="0 0 121 125" fill="none" xmlns="http://www.w3.org/2000/svg">
<g clip-path="url(#clip0_3999_2887)">
<path d="M0 5.52867V21.6458C0 21.7753 0.0431812 21.8987 0.129544 21.9913L41.9537 71.0645C42.1572 71.3052 42.5274 71.3175 42.7433 71.0892L53.5756 59.8529C53.7792 59.6431 53.773 59.3161 53.5756 59.1063L0.919144 5.15844C0.586031 4.8129 0 5.05354 0 5.53484V5.52867Z" fill="black"/>
<path d="M5.96504 0.907049L23.9901 19.227C24.0888 19.3319 24.2307 19.3874 24.3726 19.3874H94.9246C95.0664 19.3874 95.2083 19.3319 95.307 19.227L113.098 0.907049C113.425 0.567677 113.184 0 112.715 0H6.34133C5.86634 0 5.62575 0.573847 5.95887 0.907049H5.96504Z" fill="black"/>
<path d="M47.0921 76.7968L59.0224 90.6432C59.2383 90.89 59.6208 90.89 59.8305 90.6432L73.4079 74.8408L120.87 19.591C120.957 19.4923 121 19.3689 121 19.2455V1.32044C121 0.839148 120.414 0.604673 120.081 0.950216L47.1106 76.081C46.9193 76.2785 46.907 76.5932 47.0921 76.803V76.7968Z" fill="black"/>
<path d="M59.4915 125.006C69.2114 125.006 77.091 117.125 77.091 107.402C77.091 97.6795 69.2114 89.7979 59.4915 89.7979C49.7716 89.7979 41.8921 97.6795 41.8921 107.402C41.8921 117.125 49.7716 125.006 59.4915 125.006Z" fill="black"/>
</g>
<defs>
<clipPath id="clip0_3999_2887">
<rect width="121" height="125" fill="white"/>
</clipPath>
</defs>
</svg>
