<svg width="123" height="47" viewBox="0 0 123 47" fill="none" xmlns="http://www.w3.org/2000/svg">
<path d="M1.29585 20.3969L5.18287 20.3447L5.31083 28.878L1.42382 28.9302C0.696005 28.9414 0.100156 28.3968 0.0881593 27.7218L0.00018163 21.6426C-0.0118153 20.9638 0.572037 20.4081 1.29585 20.3969Z" fill="#191717"/>
<path d="M14.9092 20.2199L14.8652 20.2205L14.9946 28.7566L15.0386 28.756L14.9092 20.2199Z" fill="#191717"/>
<path d="M81.0114 19.024L41.9292 19.5394L42.0586 28.0755L81.1408 27.5602L81.0114 19.024Z" fill="#191717"/>
<path d="M39.0025 6.88483L39.5303 41.5809C39.5343 41.8606 39.4384 42.1329 39.2504 42.3529L35.6713 46.3622C35.4234 46.6531 35.0515 46.8284 34.6516 46.8321L22.0988 47C21.7029 47.0037 21.323 46.8433 21.067 46.5561L17.368 42.6401C17.176 42.4238 17.072 42.1553 17.068 41.8755L16.9601 34.8528C16.9881 34.7297 17 34.5992 17 34.4724L16.6881 13.9225C16.6881 13.792 16.6721 13.6689 16.6361 13.5458L16.5402 7.18319C16.5362 6.91094 16.6281 6.64614 16.8041 6.42982L20.3872 1.6448C20.6951 1.42848 21.015 1.15996 21.4189 1.15623L33.9437 0.992126C34.0997 0.992126 34.3117 1.07045 34.4996 1.15996C34.5276 1.17115 34.5516 1.18979 34.5796 1.20098C34.6196 1.21963 34.6556 1.24201 34.6916 1.26438C34.7156 1.2793 34.7435 1.29422 34.7635 1.30914C34.8795 1.38 34.9675 1.43967 34.9875 1.45459L38.7145 6.14265C38.8985 6.35523 38.9985 6.62003 39.0025 6.89229V6.88483Z" fill="#191717"/>
<path d="M16.6872 13.9225L16.9992 34.4723C16.9992 34.6029 16.9872 34.7297 16.9592 34.8528L16.6353 13.5421C16.6672 13.6651 16.6832 13.7919 16.6872 13.9187V13.9225Z" fill="#191717"/>
<path d="M14.7766 14.0231L15.0965 35.0653C15.0445 35.207 14.9525 35.3264 14.8206 35.4196L12.8531 36.7884C12.7211 36.8816 12.5611 36.9301 12.3932 36.9338L9.33796 36.9748C9.17 36.9748 9.01004 36.9301 8.87408 36.8406L6.86259 35.524C6.65864 35.386 6.53467 35.1697 6.53067 34.931L6.21875 14.3812C6.21875 14.1537 6.32272 13.9411 6.51068 13.7994L8.49017 12.3075C8.63014 12.2068 8.7981 12.1472 8.97405 12.1472L11.9933 12.1061C12.1692 12.1061 12.3412 12.1584 12.4812 12.2553L14.5086 13.6912C14.6286 13.777 14.7166 13.8926 14.7686 14.0231H14.7766Z" fill="#191717"/>
<path d="M14.8244 14.2693L15.1363 34.8192C15.1363 34.905 15.1203 34.9908 15.0963 35.0654L14.7764 14.0232C14.8044 14.0978 14.8244 14.1836 14.8244 14.2656V14.2693Z" fill="#191717"/>
<path d="M121.466 18.7336L117.579 18.7821L117.699 27.3153L121.586 27.2668C122.313 27.2594 122.893 26.6999 122.885 26.0249L122.797 19.942C122.789 19.2632 122.189 18.7224 121.466 18.7299V18.7336Z" fill="#191717"/>
<path d="M107.892 18.9033L107.848 18.9039L107.97 27.4401L108.014 27.4395L107.892 18.9033Z" fill="#191717"/>
<path d="M83.3786 6.18738L83.8745 40.8835C83.8745 41.1632 83.9825 41.4317 84.1744 41.648L87.8695 45.5641C88.1254 45.8512 88.5013 46.0153 88.9012 46.0079L101.454 45.8512C101.85 45.8475 102.226 45.6722 102.474 45.3813L106.057 41.372C106.241 41.152 106.341 40.8797 106.337 40.6L106.237 33.5773C106.205 33.4542 106.189 33.3274 106.185 33.1968L105.893 12.647C105.893 12.5164 105.905 12.3934 105.933 12.2666L105.841 5.90393C105.841 5.63167 105.737 5.3706 105.553 5.15429L101.83 0.462505C101.518 0.25365 101.19 -0.00368949 100.782 4.00731e-05L88.2574 0.156682C88.1014 0.156682 87.8935 0.242461 87.7095 0.33943C87.6815 0.354348 87.6576 0.369266 87.6296 0.384185C87.5896 0.406562 87.5536 0.428939 87.5176 0.447587C87.4936 0.462505 87.4656 0.477424 87.4456 0.492342C87.3296 0.563203 87.2457 0.626606 87.2257 0.645254L83.6386 5.42655C83.4626 5.64286 83.3706 5.91139 83.3746 6.17992L83.3786 6.18738Z" fill="#191717"/>
<path d="M105.893 12.6544L106.185 33.2043C106.185 33.3348 106.201 33.4616 106.237 33.5847L105.933 12.274C105.905 12.3971 105.893 12.5239 105.893 12.6544Z" fill="#191717"/>
<path d="M107.806 12.7066L108.106 33.7488C108.162 33.8868 108.258 34.0061 108.394 34.0956L110.397 35.4122C110.533 35.5017 110.693 35.5464 110.861 35.5464L113.916 35.5091C114.084 35.5091 114.244 35.4569 114.376 35.3637L116.348 33.9949C116.547 33.8532 116.667 33.6294 116.663 33.3945L116.371 12.8446C116.371 12.6171 116.256 12.4082 116.064 12.2702L114.04 10.8306C113.896 10.7337 113.728 10.6777 113.552 10.6814L110.533 10.7187C110.357 10.7187 110.189 10.7784 110.049 10.8791L108.066 12.3672C107.95 12.4567 107.862 12.5723 107.814 12.7029L107.806 12.7066Z" fill="#191717"/>
<path d="M107.765 12.9528L108.057 33.5027C108.057 33.5885 108.077 33.6742 108.105 33.7488L107.805 12.7067C107.777 12.785 107.761 12.867 107.765 12.9528Z" fill="#191717"/>
</svg>
