<svg width="150" height="150" viewBox="0 0 150 150" fill="none" xmlns="http://www.w3.org/2000/svg">
<g id="GS Point">
<path d="M75 0C33.5774 0 0 33.5774 0 75C0 116.423 33.5774 150 75 150C116.423 150 150 116.423 150 75C150 33.5774 116.423 0 75 0ZM75 142.192C37.949 142.192 7.80802 112.051 7.80802 75C7.80802 37.949 37.949 7.80802 75 7.80802C112.051 7.80802 142.185 37.949 142.185 75C142.185 112.051 112.044 142.192 75 142.192Z" fill="black"/>
<path d="M75 15.2301C42.0386 15.2301 15.2301 42.046 15.2301 75C15.2301 107.954 42.0386 134.77 75 134.77C107.961 134.77 134.763 107.954 134.763 75C134.763 42.046 107.954 15.2301 75 15.2301ZM62.5606 105.386C60.5418 105.653 58.6492 106.655 57.5285 106.715C55.9995 106.789 47.0856 100.844 43.6269 92.9317C38.387 80.9748 37.6596 71.7937 37.0807 66.8877C36.2717 60.1781 37.0955 55.903 40.235 52.4666C42.0535 50.4775 44.6289 47.9466 47.3973 47.427C50.5295 46.8333 52.0213 48.5255 54.2034 49.9283C56.3929 51.3385 57.1945 52.0139 57.7808 53.7135C57.9515 54.2182 58.0925 55.3538 57.4394 55.7546C57.239 55.8808 57.098 56.0737 57.098 56.3112C57.1054 57.1203 56.5265 58.1742 55.6358 58.3152C55.4058 58.3523 55.2276 58.5527 55.2054 58.7902C55.1014 59.7848 53.7952 60.5641 53.0455 60.3785C53.3647 61.5586 51.5389 61.8704 50.9006 61.9075C50.433 61.9297 49.7872 61.9223 49.238 61.7813C49.1861 61.7813 48.6442 61.5661 48.3399 61.2247C48.1544 61.0094 47.8278 60.9797 47.5977 61.1504C46.5958 61.8852 45.2672 61.7145 45.9723 63.2731C46.6106 64.6982 48.6517 70.3093 53.0901 74.0351C57.1945 77.4938 59.2504 80.9748 60.6977 83.9288C60.7422 84.0178 60.7571 84.1069 60.7571 84.2108C60.72 85.569 60.6977 87.0386 60.7125 88.5527C60.7793 95.7966 61.5587 101.17 63.0356 104.57C63.1915 104.933 62.9466 105.334 62.5606 105.386ZM96.4572 88.5972C94.6314 92.7536 88.8793 103.182 77.2934 102.721C73.2187 102.566 70.621 101.972 68.7432 101.66C68.5428 101.623 68.3721 101.497 68.2905 101.311C66.5389 97.1326 67.0955 89.1242 67.7783 83.6096C67.7783 83.5873 67.7783 83.5577 67.7932 83.5354C68.6987 79.6982 71.4894 73.0406 82.0436 74.4434C82.2588 74.473 82.4518 74.6215 82.526 74.8293C83.0901 76.3137 83.9065 78.1395 85.0495 79.9654C87.8921 84.4706 91.6254 87.1202 95.9748 87.766C96.3681 87.8253 96.6131 88.2336 96.4572 88.5972ZM105.141 83.9065C105.141 83.9065 105.134 83.9436 105.111 84.0104C99.4706 84.1366 94.5052 81.4646 90.334 76.0391C88.3523 73.4636 86.9792 70.7694 86.1405 68.8768C86.1183 68.8249 86.1034 68.7729 86.096 68.7135C85.235 63.4216 89.7773 55.094 102.187 54.4409C111.873 53.9288 115.628 62.2786 116.029 69.8639C116.645 81.5463 105.141 83.9065 105.141 83.9065Z" fill="black"/>
</g>
</svg>
