<svg width="94" height="26" viewBox="0 0 94 26" fill="none" xmlns="http://www.w3.org/2000/svg">
<path d="M26 13C26 20.1797 20.1797 26 13 26C5.8203 26 0 20.1797 0 13C0 5.8203 5.8203 0 13 0C20.1797 0 26 5.8203 26 13Z" fill="black"/>
<path d="M60 13C60 20.1797 54.1797 26 47 26C39.8203 26 34 20.1797 34 13C34 5.8203 39.8203 0 47 0C54.1797 0 60 5.8203 60 13Z" fill="black"/>
<path d="M94 13C94 20.1797 88.1797 26 81 26C73.8203 26 68 20.1797 68 13C68 5.8203 73.8203 0 81 0C88.1797 0 94 5.8203 94 13Z" fill="black"/>
</svg>
