<svg width="128" height="129" viewBox="0 0 128 129" fill="none" xmlns="http://www.w3.org/2000/svg">
<g clip-path="url(#clip0_3999_2894)">
<path d="M127.722 121.223L120.235 128.722C119.865 129.093 119.26 129.093 118.89 128.722L70.0153 79.7765C69.6079 79.3684 69.6573 78.7007 70.1141 78.3422C72.8547 76.2216 75.3422 73.7858 77.5273 71.0965C77.8853 70.6576 78.5396 70.6143 78.9408 71.0161L127.716 119.869C128.087 120.24 128.087 120.846 127.716 121.216L127.722 121.223Z" fill="black"/>
<path d="M42.072 0C18.8695 0 0 18.8993 0 42.1386C0 65.3779 18.8695 84.2772 42.072 84.2772C51.2136 84.2772 59.6885 81.3406 66.5956 76.3515C69.9966 73.9033 73.0212 70.9605 75.5519 67.6221C80.9405 60.5433 84.1441 51.7088 84.1441 42.1386C84.1441 18.8993 65.2685 0 42.072 0ZM11.8142 42.1386C11.8142 25.4278 25.3877 11.8391 42.072 11.8391C58.7564 11.8391 72.3237 25.4278 72.3237 42.1386C72.3237 58.8494 58.7503 72.4381 42.072 72.4381C25.3938 72.4381 11.8142 58.8432 11.8142 42.1386Z" fill="black"/>
</g>
<defs>
<clipPath id="clip0_3999_2894">
<rect width="128" height="129" fill="white"/>
</clipPath>
</defs>
</svg>
