<svg width="102" height="97" viewBox="0 0 102 97" fill="none" xmlns="http://www.w3.org/2000/svg">
<g clip-path="url(#clip0_4533_4662)">
<path d="M48.8376 15.087C-0.541823 39.7384 -1.09873 81.3277 0.37131 95.8045C0.511792 97.1851 2.40328 97.4552 2.94012 96.1746C14.274 69.1371 38.166 60.258 49.7658 57.4717C50.3679 57.3266 50.7893 56.7914 50.7893 56.1761V16.2776C50.7893 15.2821 49.7357 14.6418 48.8426 15.087H48.8376Z" fill="black"/>
<path d="M56.3633 1.11058V70.7779C56.3633 71.7533 57.7731 72.2536 58.626 71.5783L101.588 37.5175C102.13 37.0873 102.14 36.3719 101.609 35.9317L58.6511 0.325215C57.8082 -0.37511 56.3633 0.12012 56.3633 1.11058Z" fill="black"/>
</g>
<defs>
<clipPath id="clip0_4533_4662">
<rect width="102" height="97" fill="white"/>
</clipPath>
</defs>
</svg>
