<svg width="9" height="11" viewBox="0 0 9 11" fill="none" xmlns="http://www.w3.org/2000/svg">
<path d="M4.58528 10.4535C5.26351 10.4535 5.81366 9.90789 5.81366 9.23474H3.35691C3.35691 9.90789 3.90705 10.4535 4.58528 10.4535ZM8.72128 7.60261C8.35029 7.20729 7.65613 6.6126 7.65613 4.66456C7.65613 3.18496 6.60998 2.00052 5.19937 1.70994V1.31309C5.19937 0.976613 4.9244 0.703735 4.58528 0.703735C4.24617 0.703735 3.97119 0.976613 3.97119 1.31309V1.70994C2.56058 2.00052 1.51444 3.18496 1.51444 4.66456C1.51444 6.6126 0.820271 7.20729 0.449281 7.60261C0.334067 7.72544 0.282989 7.87225 0.283949 8.01602C0.286061 8.32832 0.533196 8.62538 0.900345 8.62538H8.27022C8.63737 8.62538 8.8847 8.32832 8.88662 8.01602C8.88758 7.87225 8.8365 7.72525 8.72128 7.60261Z" fill="#FFCE00"/>
</svg>
