<svg width="64" height="56" viewBox="0 0 64 56" fill="none" xmlns="http://www.w3.org/2000/svg">
<path d="M64 14V50C64 53.3125 61.3125 56 58 56H6C2.6875 56 0 53.3125 0 50V14C0 10.6875 2.6875 8 6 8H17L18.5375 3.8875C19.4125 1.55 21.65 0 24.15 0H39.8375C42.3375 0 44.575 1.55 45.45 3.8875L47 8H58C61.3125 8 64 10.6875 64 14ZM47 32C47 23.725 40.275 17 32 17C23.725 17 17 23.725 17 32C17 40.275 23.725 47 32 47C40.275 47 47 40.275 47 32ZM43 32C43 38.0625 38.0625 43 32 43C25.9375 43 21 38.0625 21 32C21 25.9375 25.9375 21 32 21C38.0625 21 43 25.9375 43 32Z" fill="#FFF000"/>
</svg>
