<svg width="32" height="27" viewBox="0 0 32 27" fill="none" xmlns="http://www.w3.org/2000/svg">
<path d="M9.95437 18.5252C9.98391 17.8307 10.03 17.1586 10.0808 16.5399C9.51012 15.1862 8.68658 13.5766 6.93555 11.9278C5.06517 10.1747 4.29717 7.64647 4.04787 7.00403C3.70877 6.13402 4.66936 6.49317 5.10298 5.8128C4.89621 6.13402 5.48462 6.41731 5.52243 6.41731C5.76228 6.49317 6.04585 6.51213 6.25262 6.51213C6.53501 6.51213 7.34554 6.41731 7.23211 5.88866C7.60902 6.00245 8.34394 5.56744 8.21161 5.01864C8.79529 5.17036 9.21 4.41413 9.09776 3.99809C9.5881 3.96016 9.55029 3.31772 9.47467 3.0534C9.25845 2.28769 8.91935 1.97121 7.98593 1.29558C7.05724 0.623511 6.44048 -0.159979 5.04627 0.028485C3.81156 0.194428 2.62057 1.25291 1.77223 2.08855C0.307125 3.53463 -0.154856 5.40624 0.0436425 8.39322C0.185427 10.5766 0.292947 14.6493 2.32401 20.0602C3.66151 23.6375 7.45424 26.4775 8.12772 26.4775C8.69249 26.4775 9.71807 25.9666 10.7413 25.9998C10.0702 24.4838 9.8055 21.9745 9.95555 18.5252H9.95437Z" fill="#FFF000"/>
<path d="M19.1973 14.6754C18.5818 13.7746 18.1446 12.8654 17.8516 12.1483C12.7072 11.59 11.5032 14.8544 11.1499 16.6964C10.9242 19.3716 10.8061 23.2914 11.7832 25.1855C12.68 25.2899 13.9419 25.5471 15.9741 25.5471C21.7849 25.5471 24.252 19.8422 24.8463 18.1827C22.6356 18.0678 20.6979 16.8706 19.1973 14.6754Z" fill="#FFF000"/>
<path d="M25.6783 4.8207C20.3023 4.8207 18.1673 8.34463 18.4438 10.6429C18.7581 11.4798 19.2921 12.6888 20.0956 13.8599C21.7639 16.2945 23.8363 17.5592 26.2644 17.6315C26.2726 17.6043 26.2774 17.5877 26.2774 17.5877C26.2774 17.5877 31.2753 16.8315 31.2753 11.7844C31.2753 8.50465 29.8527 4.81952 25.6795 4.81952L25.6783 4.8207Z" fill="#FFF000"/>
</svg>
