<svg width="64" height="45" viewBox="0 0 64 45" fill="none" xmlns="http://www.w3.org/2000/svg">
<path d="M10.4 6.4H5.6C4.27 6.4 3.2 7.47 3.2 8.8V19.2H0.8C0.36 19.2 0 19.56 0 20V24.8C0 25.24 0.36 25.6 0.8 25.6H3.2V36C3.2 37.33 4.27 38.4 5.6 38.4H10.4C11.73 38.4 12.8 37.33 12.8 36V8.8C12.8 7.47 11.73 6.4 10.4 6.4ZM63.2 19.2H60.8V8.8C60.8 7.47 59.73 6.4 58.4 6.4H53.6C52.27 6.4 51.2 7.47 51.2 8.8V36C51.2 37.33 52.27 38.4 53.6 38.4H58.4C59.73 38.4 60.8 37.33 60.8 36V25.6H63.2C63.64 25.6 64 25.24 64 24.8V20C64 19.56 63.64 19.2 63.2 19.2ZM45.6 0H40.8C39.47 0 38.4 1.07 38.4 2.4V19.2H25.6V2.4C25.6 1.07 24.53 0 23.2 0H18.4C17.07 0 16 1.07 16 2.4V42.4C16 43.73 17.07 44.8 18.4 44.8H23.2C24.53 44.8 25.6 43.73 25.6 42.4V25.6H38.4V42.4C38.4 43.73 39.47 44.8 40.8 44.8H45.6C46.93 44.8 48 43.73 48 42.4V2.4C48 1.07 46.93 0 45.6 0Z" fill="#FFF000"/>
</svg>
