<svg width="64" height="50" viewBox="0 0 64 50" fill="none" xmlns="http://www.w3.org/2000/svg">
<path d="M46.2222 17.8571C46.2222 7.99107 35.8778 0 23.1111 0C10.3444 0 0 7.99107 0 17.8571C0 21.6853 1.56667 25.2121 4.22222 28.125C2.73333 31.4955 0.277778 34.1741 0.244444 34.2076C0 34.4643 -0.0666667 34.8438 0.0777778 35.1786C0.222222 35.5134 0.533333 35.7143 0.888889 35.7143C4.95556 35.7143 8.32222 34.3415 10.7444 32.9241C14.3222 34.6763 18.5556 35.7143 23.1111 35.7143C35.8778 35.7143 46.2222 27.7232 46.2222 17.8571ZM59.7778 42.4107C62.4333 39.5089 64 35.971 64 32.1429C64 24.6763 58.0556 18.2812 49.6333 15.6138C49.7333 16.3504 49.7778 17.0982 49.7778 17.8571C49.7778 29.6763 37.8111 39.2857 23.1111 39.2857C21.9111 39.2857 20.7444 39.1964 19.5889 39.0737C23.0889 45.4911 31.3111 50 40.8889 50C45.4444 50 49.6778 48.9732 53.2556 47.2098C55.6778 48.6272 59.0444 50 63.1111 50C63.4667 50 63.7889 49.7879 63.9222 49.4643C64.0667 49.1406 64 48.7612 63.7556 48.4933C63.7222 48.4598 61.2667 45.7924 59.7778 42.4107Z" fill="white"/>
</svg>
