<svg width="72" height="72" viewBox="0 0 72 72" fill="none" xmlns="http://www.w3.org/2000/svg">
<path d="M14.6685 68C20.5634 68 25.337 63.2264 25.337 57.3315L25.337 14.6685C25.337 8.77363 20.5634 4 14.6685 4C8.77364 4 4.00001 8.77363 4.00001 14.6685C4.00001 20.5634 8.77364 25.337 14.6685 25.337L57.3315 25.337C63.2264 25.337 68 20.5634 68 14.6685C68 8.77364 63.2264 4 57.3315 4C51.4366 4 46.663 8.77364 46.663 14.6685L46.663 57.3315C46.663 63.2264 51.4366 68 57.3315 68C63.2264 68 68 63.2264 68 57.3315C68 51.4366 63.2264 46.663 57.3315 46.663L14.6685 46.663C8.77364 46.663 4 51.4366 4 57.3315C4 63.2264 8.77364 68 14.6685 68Z" stroke="white" stroke-width="7" stroke-linecap="round" stroke-linejoin="round"/>
</svg>
