<svg width="24" height="28" viewBox="0 0 24 28" fill="none" xmlns="http://www.w3.org/2000/svg">
<g clip-path="url(#clip0_4867_4806)">
<path d="M1.30935 20.7857C0.641031 20.3487 0.227041 19.7434 0.0787806 18.9882C0.0764997 18.9745 0.0742188 18.9596 0.0742188 18.9447L0.0947472 16.1391C0.0958876 15.9618 0.312576 15.8736 0.434606 16.0018C0.572603 16.1483 0.739111 16.3027 0.937553 16.4561C1.70281 17.0442 3.11699 17.7296 5.55417 17.7296C5.64654 17.7296 5.74006 17.7296 5.83472 17.7261C5.86551 17.7261 8.87749 17.7101 13.1907 16.2284C19.972 13.8999 22.7182 14.1081 23.8039 14.5269C23.8792 14.5555 23.9271 14.6276 23.9294 14.7077L24.0001 18.1769C24.0024 18.2937 23.9043 18.3875 23.788 18.3783C22.8459 18.2994 20.4224 18.1529 18.9341 18.5843C17.1242 19.1106 9.89935 21.1507 9.83206 21.1691C9.81723 21.1725 8.34375 21.5146 6.55892 21.6348C4.21526 21.7927 2.40077 21.4986 1.30935 20.7835V20.7857Z" fill="white"/>
<path d="M23.3924 19.763C22.7617 21.064 20.9176 21.6029 20.4568 21.7196C20.3907 21.7356 20.3371 21.7859 20.3143 21.85C19.1156 25.1602 17.3639 25.9966 14.9894 26.4875C13.2901 26.8388 12.5112 27.5448 12.2021 27.9269C12.1177 28.0311 11.9581 28.0208 11.8851 27.9086C11.6285 27.5116 10.9476 26.793 9.26201 26.444C6.98905 25.9749 5.43916 25.3971 4.13332 22.5457C4.06946 22.405 4.1835 22.2482 4.33747 22.2677C4.84498 22.334 5.36845 22.3603 5.8828 22.3603C8.01205 22.3603 8.62563 22.1864 10.1402 21.8695C11.6547 21.5525 16.9967 19.9335 18.6971 19.4403C20.3713 18.954 23.4802 19.287 23.5121 19.2904" fill="white"/>
<path d="M23.8281 4.95549V8.20848C23.8281 8.93963 23.2374 9.53348 22.5075 9.53348H21.7525C21.6247 9.53348 21.505 9.59527 21.4343 9.70168C20.7454 10.7315 20.685 12.9272 20.6827 13.592C20.6827 13.6092 20.685 13.624 20.6896 13.6401C20.2539 13.6801 19.7852 13.743 19.2822 13.83C17.5533 14.1275 15.4023 14.711 13.061 15.5143C8.91422 16.9388 6.0277 16.956 5.99577 16.956C4.64773 16.9857 2.7614 16.8072 1.42933 15.7946C0.64013 15.1927 0.415458 14.5726 0.413177 14.5646L0.381244 14.4696C0.642411 14.2591 1.39512 13.6332 2.953 13.7693C3.05564 13.7785 3.14346 13.6973 3.14346 13.5931C3.14118 12.9284 3.08073 10.7326 2.39189 9.70282C2.32118 9.59641 2.20143 9.53462 2.0737 9.53462H1.31871C0.58995 9.53462 -0.00195312 8.94192 -0.00195312 8.20963V4.95663C-0.00195312 4.42801 0.393789 3.98405 0.917264 3.92455L7.61181 3.17052C7.68822 3.16136 7.74524 3.09729 7.74524 3.02063V1.34207C7.74524 0.601764 8.34285 0.00219727 9.08073 0.00219727H14.7432C15.481 0.00219727 16.0786 0.601764 16.0786 1.34207V3.02063C16.0786 3.09729 16.1368 3.16251 16.2121 3.17052L22.9066 3.92455C23.4312 3.98291 23.8258 4.42801 23.8258 4.95663L23.8281 4.95549Z" fill="white"/>
<path d="M23.9294 14.71L24.0001 18.1792C24.0024 18.2959 23.9043 18.3898 23.788 18.3806C22.8459 18.3017 20.4224 18.1552 18.9341 18.5866C17.1242 19.1129 11.6956 20.8475 9.83206 21.1713C7.96968 21.4952 8.34375 21.5169 6.55892 21.637C4.21526 21.7949 2.40077 21.5009 1.30935 20.7857C0.641031 20.3487 0.227041 19.7434 0.0787806 18.9882C0.0764997 18.9745 0.0742188 18.9596 0.0742188 18.9447L0.0947472 16.1391C0.0958876 15.9618 0.312576 15.8736 0.434606 16.0018C0.572603 16.1483 0.739111 16.3027 0.937553 16.4561C1.70281 17.0442 3.11699 17.7296 5.55417 17.7296C5.64654 17.7296 5.74006 17.7296 5.83472 17.7261C5.86551 17.7261 8.87749 17.7101 13.1907 16.2284C19.972 13.8999 22.7182 14.1081 23.8039 14.5269C23.8792 14.5555 23.9271 14.6276 23.9294 14.7077V14.71Z" fill="white"/>
</g>
<defs>
<clipPath id="clip0_4867_4806">
<rect width="24" height="28" fill="white"/>
</clipPath>
</defs>
</svg>
