<svg width="25" height="23" viewBox="0 0 25 23" fill="none" xmlns="http://www.w3.org/2000/svg">
<g clip-path="url(#clip0_4290_4229)">
<path d="M24.7 0H0.3C0.134315 0 0 0.134314 0 0.3V8.87882C0 9.04451 0.134314 9.17882 0.299999 9.17882H24.7C24.8657 9.17882 25 9.04451 25 8.87882V0.3C25 0.134315 24.8657 0 24.7 0Z" fill="#FFF000"/>
<path d="M11.5195 10.536H0.3C0.134315 10.536 0 10.6703 0 10.836V22.7C0 22.8657 0.134315 23 0.3 23H11.5195C11.6852 23 11.8195 22.8657 11.8195 22.7V10.836C11.8195 10.6703 11.6852 10.536 11.5195 10.536Z" fill="#FFF000"/>
<path d="M24.6999 10.536H13.4804C13.3147 10.536 13.1804 10.6703 13.1804 10.836V15.79C13.1804 15.9557 13.3147 16.09 13.4804 16.09H24.6999C24.8656 16.09 24.9999 15.9557 24.9999 15.79V10.836C24.9999 10.6703 24.8656 10.536 24.6999 10.536Z" fill="#FFF000"/>
<path d="M18.1109 17.446H13.4804C13.3147 17.446 13.1804 17.5803 13.1804 17.746V22.7C13.1804 22.8657 13.3147 23 13.4804 23H18.1109C18.2766 23 18.4109 22.8657 18.4109 22.7V17.746C18.4109 17.5803 18.2766 17.446 18.1109 17.446Z" fill="#FFF000"/>
<path d="M24.7 17.446H20.0695C19.9038 17.446 19.7695 17.5803 19.7695 17.746V22.7C19.7695 22.8657 19.9038 23 20.0695 23H24.7C24.8657 23 25 22.8657 25 22.7V17.746C25 17.5803 24.8657 17.446 24.7 17.446Z" fill="#FFF000"/>
</g>
<defs>
<clipPath id="clip0_4290_4229">
<rect width="25" height="23" fill="white"/>
</clipPath>
</defs>
</svg>
