<svg width="28" height="28" viewBox="0 0 28 28" fill="none" xmlns="http://www.w3.org/2000/svg">
<g clip-path="url(#clip0_4867_7897)">
<path d="M26.3354 8.10011L25.2194 8.63482C25.0596 8.71157 24.993 8.90155 25.0647 9.06385C25.7604 10.6177 26.1127 12.2772 26.1127 13.9996C26.1127 20.679 20.6788 26.113 13.9993 26.113C10.0236 26.113 6.32714 24.1779 4.0587 20.9219C3.9656 20.7885 3.78946 20.7407 3.64351 20.8149L2.4835 21.4025C2.3363 21.4767 2.26836 21.6503 2.32624 21.8051L3.82217 25.8513C3.88382 26.0199 4.07128 26.1054 4.23987 26.0438L5.40114 25.6147C5.56973 25.5531 5.65529 25.3656 5.59364 25.1983C7.98411 26.9962 10.9194 28.0014 14.0006 28.0014C21.7205 28.0014 28.0012 21.7208 28.0012 14.0008C28.0012 11.9966 27.5873 10.0653 26.772 8.25738C26.6977 8.09256 26.5002 8.02337 26.3367 8.10137L26.3354 8.10011Z" fill="white"/>
<path d="M1.88722 13.9994C1.88722 7.32114 7.32114 1.88722 13.9994 1.88722C17.9738 1.88722 21.6678 3.82098 23.9387 7.07329C24.0318 7.20665 24.208 7.2532 24.3526 7.18023L25.5126 6.59393C25.6599 6.5197 25.7278 6.34734 25.6712 6.19259L24.1803 2.1011C24.1186 1.93251 23.9324 1.8457 23.7638 1.90735L22.6013 2.33134C22.4327 2.39299 22.3459 2.5792 22.4075 2.74779L22.4352 2.82453C20.0397 1.01281 17.0931 0 13.9994 0C6.28066 0 0 6.28066 0 13.9994C0 15.9998 0.412671 17.9286 1.22543 19.734C1.29966 19.8988 1.49719 19.968 1.66075 19.89L2.77672 19.3566C2.93651 19.2798 3.00445 19.0898 2.93148 18.9275C2.23824 17.375 1.88722 15.7193 1.88722 13.9994Z" fill="white"/>
<path d="M4.50011 11.0918C4.35416 11.0918 4.22583 11.1874 4.18683 11.3283C3.95533 12.1788 3.83203 13.0759 3.83203 13.9994C3.83203 14.9228 3.96036 15.8564 4.20067 16.722C4.23967 16.8616 4.36926 16.9573 4.51395 16.9573H9.64843C9.83967 16.9573 9.98939 16.7912 9.97178 16.6012C9.81073 14.8423 9.80948 13.2055 9.968 11.4479C9.98562 11.2566 9.8359 11.0918 9.64466 11.0918H4.50136H4.50011Z" fill="white"/>
<path d="M5.59258 9.20482H9.96463C10.1244 9.20482 10.2603 9.08907 10.2855 8.9318C10.3949 8.2436 10.5258 7.5252 10.6755 6.76654L10.683 6.73257L11.1523 4.75225C11.2102 4.50565 10.9762 4.28674 10.7359 4.36851C8.45989 5.13976 6.545 6.69608 5.31453 8.71414C5.18368 8.92929 5.34221 9.20482 5.59384 9.20482H5.59258Z" fill="white"/>
<path d="M10.734 23.6307C10.9743 23.7125 11.2096 23.4936 11.1505 23.247L10.6736 21.2327C10.5264 20.4929 10.3993 19.7909 10.2911 19.1177C10.266 18.9605 10.1301 18.8447 9.97031 18.8447H5.62091C5.36802 18.8447 5.2095 19.1215 5.3416 19.3367C6.57332 21.3308 8.47564 22.867 10.7327 23.6307H10.734Z" fill="white"/>
<path d="M13.2485 23.9072C13.2824 24.0494 13.407 24.15 13.5529 24.1576C13.6989 24.1651 13.8498 24.1677 13.9996 24.1677C14.1719 24.1677 14.343 24.1639 14.5141 24.1551C14.6563 24.1475 14.7758 24.0444 14.8085 23.906L15.5332 20.8487C15.6452 20.2838 15.7459 19.744 15.8327 19.2257C15.8666 19.0269 15.7132 18.8457 15.5119 18.8457H12.5414C12.3401 18.8457 12.1866 19.0269 12.2205 19.2257C12.3086 19.7453 12.4093 20.285 12.5212 20.8487L13.2472 23.9085L13.2485 23.9072Z" fill="white"/>
<path d="M14.808 4.09519C14.7753 3.95679 14.6558 3.85363 14.5136 3.84608C14.3425 3.83727 14.1714 3.8335 13.999 3.8335C13.8493 3.8335 13.7008 3.83601 13.5524 3.84356C13.4039 3.85111 13.2819 3.95176 13.2479 4.09393L12.522 7.15248C12.4062 7.735 12.303 8.2911 12.2137 8.82581C12.1797 9.0246 12.3332 9.20577 12.5345 9.20577H15.5214C15.7227 9.20577 15.8749 9.0246 15.8422 8.82707C15.7529 8.29236 15.6497 7.73626 15.534 7.15248L14.8093 4.09645L14.808 4.09519Z" fill="white"/>
<path d="M15.865 11.0918H12.1899C12.0226 11.0918 11.8817 11.2189 11.8653 11.3849C11.6867 13.1967 11.6879 14.8511 11.8704 16.6654C11.8867 16.8315 12.0276 16.9573 12.1937 16.9573H15.8599C16.026 16.9573 16.1669 16.8302 16.1833 16.6654C16.3657 14.8511 16.3657 13.1967 16.1883 11.3849C16.172 11.2189 16.031 11.0918 15.8637 11.0918H15.865Z" fill="white"/>
<path d="M22.3777 18.8447H18.0837C17.9239 18.8447 17.788 18.9605 17.7628 19.119C17.6559 19.7921 17.5276 20.4942 17.3804 21.2327L17.3728 21.2667L16.9086 23.2281C16.8494 23.476 17.0872 23.6949 17.3275 23.6118C19.5582 22.8406 21.4379 21.3132 22.657 19.3367C22.7891 19.1215 22.6306 18.8447 22.3777 18.8447Z" fill="white"/>
<path d="M18.0912 9.20469H22.4079C22.6595 9.20469 22.8193 8.92916 22.6872 8.71402C21.468 6.71231 19.5758 5.16731 17.3262 4.38852C17.0859 4.30548 16.8494 4.5244 16.9073 4.77225L17.3803 6.76641C17.5313 7.52507 17.6609 8.24221 17.7704 8.93042C17.7955 9.08894 17.9314 9.20469 18.0912 9.20469Z" fill="white"/>
<path d="M24.1678 13.9994C24.1678 13.0746 24.0445 12.1788 23.813 11.3283C23.7753 11.1887 23.6457 11.0918 23.4998 11.0918H18.4118C18.2206 11.0918 18.0721 11.2566 18.0885 11.4479C18.247 13.2055 18.2445 14.8423 18.0835 16.6012C18.0658 16.7924 18.2143 16.9573 18.4068 16.9573H23.4859C23.6306 16.9573 23.7602 16.8616 23.7992 16.722C24.0395 15.8551 24.1678 14.943 24.1678 13.9994Z" fill="white"/>
</g>
<defs>
<clipPath id="clip0_4867_7897">
<rect width="28" height="28" fill="white"/>
</clipPath>
</defs>
</svg>
