<svg width="63" height="64" viewBox="0 0 63 64" fill="none" xmlns="http://www.w3.org/2000/svg">
<path fill-rule="evenodd" clip-rule="evenodd" d="M62.7203 32.7281C62.7203 30.459 62.5166 28.2772 62.1385 26.1826H32V38.5609H49.222C48.4801 42.5609 46.2256 45.9501 42.8365 48.2192V56.2483H53.1784C59.2293 50.6774 62.7203 42.4737 62.7203 32.7281Z" fill="#4285F4"/>
<path fill-rule="evenodd" clip-rule="evenodd" d="M32.0004 64.0003C40.6405 64.0003 47.8842 61.1348 53.1788 56.2475L42.8369 48.2183C39.9714 50.1384 36.3059 51.2729 32.0004 51.2729C23.6658 51.2729 16.6112 45.6438 14.0948 38.0801H3.40381V46.3711C8.66931 56.8293 19.4912 64.0003 32.0004 64.0003Z" fill="#34A853"/>
<path fill-rule="evenodd" clip-rule="evenodd" d="M14.0947 38.0815C13.4547 36.1614 13.091 34.1105 13.091 32.0014C13.091 29.8923 13.4547 27.8414 14.0947 25.9214V17.6304H3.40367C1.23637 21.9504 0 26.8377 0 32.0014C0 37.1651 1.23637 42.0524 3.40367 46.3724L14.0947 38.0815Z" fill="#FBBC05"/>
<path fill-rule="evenodd" clip-rule="evenodd" d="M32.0004 12.7274C36.6987 12.7274 40.9169 14.3419 44.2333 17.5129L53.4115 8.33462C47.8697 3.17094 40.626 0 32.0004 0C19.4912 0 8.66931 7.17097 3.40381 17.6292L14.0948 25.9202C16.6112 18.3565 23.6658 12.7274 32.0004 12.7274Z" fill="#EA4335"/>
</svg>
