<svg width="24" height="20" viewBox="0 0 24 20" fill="none" xmlns="http://www.w3.org/2000/svg">
<g clip-path="url(#clip0_1277_291)">
<path d="M12.9447 8.58056C12.8492 8.49027 12.7327 8.42097 12.5972 8.37058C12.4618 8.32018 12.3022 8.29498 12.1216 8.29498C11.9169 8.29498 11.7237 8.32753 11.5378 8.39368C11.3531 8.45877 11.1851 8.55221 11.036 8.67295C10.8848 8.7937 10.7599 8.93858 10.6591 9.10867C10.5562 9.27876 10.4879 9.46564 10.4512 9.66933C10.4155 9.87301 10.4176 10.0609 10.4564 10.2321C10.4953 10.4032 10.5677 10.5502 10.6738 10.6741C10.7147 10.7224 10.7599 10.7654 10.8092 10.8043C10.7924 10.7738 10.7788 10.7413 10.7672 10.7077C10.7221 10.5838 10.7137 10.4389 10.742 10.2772C10.7609 10.1712 10.7935 10.0725 10.8396 9.9843C10.8743 9.91606 10.9194 9.84886 10.9751 9.78482C10.9856 9.77327 10.9961 9.76172 11.0066 9.75017C11.0097 9.72392 11.0139 9.69663 11.0181 9.66933C11.0507 9.48559 11.1168 9.32705 11.2166 9.19371C11.3184 9.06037 11.4392 8.95748 11.583 8.88609C11.7268 8.81469 11.878 8.77795 12.0366 8.77795C12.2045 8.77795 12.341 8.81469 12.446 8.88609C12.55 8.95748 12.6245 9.05198 12.6707 9.16747L13.1778 8.89869C13.119 8.77585 13.0413 8.6698 12.9447 8.58056Z" fill="#fff"/>
<path d="M13.2063 9.57904C13.1779 9.78063 13.1212 9.97066 13.0351 10.1491C12.9501 10.3276 12.8367 10.4862 12.6981 10.6227C12.6393 10.6815 12.5763 10.734 12.5091 10.7812C12.4913 10.7633 12.4724 10.7476 12.4524 10.7319C12.4283 10.7119 12.3989 10.6909 12.3642 10.6689C12.2823 10.6164 12.1931 10.5723 12.0986 10.5355C12.0849 10.5303 12.0723 10.5261 12.0587 10.5208C12.1332 10.4946 12.1994 10.4578 12.2592 10.4137C12.2781 10.4001 12.296 10.3854 12.3138 10.3707C12.3632 10.3287 12.4073 10.2825 12.4482 10.2321C12.5028 10.1638 12.549 10.0904 12.5858 10.0095H12.0398L12.1091 9.61789L12.1164 9.57904H13.2063Z" fill="#ffffff"/>
<path d="M12.5501 11.5361C12.527 11.6642 12.4818 11.7787 12.4136 11.8795C12.3453 11.9802 12.2613 12.0653 12.1616 12.1346C12.0619 12.2039 11.9537 12.2564 11.8372 12.2931C11.7217 12.3299 11.603 12.3477 11.4823 12.3477C11.3217 12.3477 11.1757 12.3173 11.0466 12.2553C10.9185 12.1934 10.8114 12.1104 10.7264 12.0044C10.6424 11.8983 10.5815 11.7839 10.5458 11.6611L10.9794 11.3891C11.0172 11.4868 11.0634 11.5729 11.1169 11.6453C11.1705 11.7188 11.2345 11.7755 11.308 11.8154C11.3815 11.8553 11.4645 11.8763 11.5579 11.8763C11.666 11.8763 11.7595 11.848 11.8372 11.7934C11.9138 11.7377 11.9621 11.6621 11.9789 11.5666C11.9936 11.4836 11.9842 11.4164 11.9506 11.366C11.9191 11.3156 11.8645 11.2715 11.7899 11.2317C11.7154 11.1928 11.623 11.1508 11.5117 11.1057C11.4697 11.0889 11.4235 11.0689 11.3742 11.0437C11.3532 11.0353 11.3322 11.0248 11.3112 11.0133C11.2366 10.9744 11.1684 10.924 11.1054 10.8621C11.0445 10.8001 10.9962 10.7245 10.9647 10.6353C10.9321 10.5461 10.9269 10.439 10.9489 10.313C10.9636 10.229 10.9888 10.1513 11.0266 10.0799C11.055 10.0232 11.0917 9.9707 11.1337 9.9224C11.2293 9.81216 11.35 9.72817 11.4918 9.66937C11.6198 9.61582 11.7563 9.58643 11.9023 9.58118L11.8267 10.0095H11.8256C11.813 10.0095 11.7973 10.0127 11.7794 10.019C11.7542 10.0284 11.7259 10.0431 11.6975 10.0599C11.6692 10.0767 11.6419 10.0967 11.6198 10.1145C11.5568 10.1639 11.5212 10.2206 11.5096 10.2867C11.4981 10.3518 11.5096 10.4085 11.5432 10.4579C11.5726 10.4999 11.6188 10.5408 11.6828 10.5786C11.6933 10.5849 11.7038 10.5912 11.7154 10.5975C11.7952 10.6416 11.8991 10.6867 12.0241 10.7319C12.1039 10.7623 12.1805 10.8001 12.2508 10.8453C12.275 10.861 12.2991 10.8778 12.3212 10.8957C12.3642 10.9293 12.402 10.9671 12.4367 11.0091C12.4902 11.0731 12.527 11.1487 12.548 11.2358C12.57 11.323 12.57 11.4227 12.5501 11.5361Z" fill="#fff"/>
<path d="M11.8214 2.87951C8.98663 2.88266 6.26419 4.66962 5.15968 7.28707C4.88775 7.94117 4.71346 8.59422 4.62842 9.23677C4.80585 9.11498 4.98539 8.99424 5.16283 8.8756C5.24367 8.821 5.32451 8.76746 5.40536 8.71391C5.48305 8.31914 5.59854 7.92542 5.75498 7.5338C6.69151 5.08644 9.19242 3.37822 11.8214 3.43912C12.3338 3.44017 12.8377 3.50841 13.3239 3.63755C13.4015 3.58925 13.4792 3.54096 13.5559 3.49266C13.7197 3.39082 13.8824 3.28898 14.0451 3.18609C13.327 2.97085 12.5763 2.86376 11.8214 2.87951Z" fill="#fff"/>
<path d="M19.2685 9.23253C19.2181 9.27033 19.1677 9.30812 19.1162 9.34592C18.7981 9.58425 18.4642 9.82993 18.0999 10.0935C18.101 10.0651 18.102 10.0368 18.101 10.0084C18.1031 9.93388 18.1031 9.85933 18.101 9.78374C18.102 9.78164 18.102 9.78059 18.101 9.77849C18.0989 9.6861 18.0957 9.59265 18.0884 9.50026C18.0863 9.46456 18.0842 9.42782 18.08 9.39212C18.08 9.38057 18.0789 9.37007 18.0779 9.35852C18.0684 9.25248 18.0558 9.14539 18.0411 9.0383C18.0296 8.95745 18.017 8.87661 18.0023 8.79576C17.9991 8.77897 17.996 8.76112 17.9928 8.74327C17.9928 8.73907 17.9928 8.73487 17.9907 8.73067C17.9876 8.71702 17.9855 8.70337 17.9823 8.68972L17.9634 8.59208C17.9613 8.58368 17.9603 8.57633 17.9582 8.56793C17.9561 8.55953 17.954 8.55008 17.9519 8.54063V8.53853C17.9508 8.53223 17.9487 8.52488 17.9466 8.51859C17.9424 8.49969 17.9382 8.48184 17.934 8.46399C17.9298 8.44509 17.9256 8.42619 17.9204 8.40834C17.9183 8.39469 17.9141 8.38 17.9109 8.36635C17.9088 8.3569 17.9067 8.3485 17.9036 8.33905C17.891 8.29075 17.8784 8.24351 17.8647 8.19521C17.8343 8.08707 17.8017 7.97893 17.765 7.87183C17.7534 7.83614 17.7419 7.80149 17.7293 7.76684C17.7114 7.71855 17.6946 7.67025 17.6757 7.62195C17.6558 7.56736 17.6358 7.51381 17.6148 7.46027C17.5959 7.41302 17.577 7.36577 17.5571 7.31958C17.5361 7.27023 17.5151 7.22088 17.492 7.17154C17.4742 7.13059 17.4542 7.08964 17.4353 7.0487C17.4248 7.02875 17.4154 7.00775 17.4049 6.9878C17.3891 6.95421 17.3723 6.92061 17.3555 6.88806C17.3513 6.88176 17.3482 6.87546 17.345 6.86916C17.3261 6.83241 17.3062 6.79567 17.2862 6.75997C17.2589 6.70852 17.2295 6.65708 17.1991 6.60668C17.1707 6.55734 17.1413 6.50799 17.1109 6.45969C17.1098 6.45759 17.1088 6.45654 17.1077 6.45444C17.0815 6.41245 17.0552 6.37045 17.0279 6.3295C17.0279 6.3274 17.0248 6.32425 17.0237 6.32215C16.9943 6.27806 16.9649 6.23396 16.9345 6.19091C16.9041 6.14682 16.8726 6.10377 16.8421 6.06072C16.8358 6.05232 16.8295 6.04392 16.8232 6.03553C16.819 6.03028 16.8148 6.02398 16.8106 6.01873C16.7833 5.98093 16.755 5.94523 16.7266 5.90849C16.6689 5.83394 16.6101 5.7615 16.5481 5.68905C16.5166 5.65126 16.483 5.61346 16.4505 5.57671C16.4452 5.57146 16.44 5.56516 16.4358 5.55991C16.3833 5.50112 16.3297 5.44442 16.2751 5.38878C16.2552 5.36778 16.2353 5.34678 16.2143 5.32578C16.1775 5.28798 16.1387 5.25019 16.0998 5.21344C16.0977 5.21134 16.0956 5.20924 16.0935 5.20714C16.062 5.17669 16.0305 5.14624 15.998 5.11685C15.9465 5.0696 15.894 5.0234 15.8415 4.97826C15.7995 4.94151 15.7565 4.90581 15.7145 4.87116C15.6704 4.83547 15.6263 4.79977 15.5822 4.76512C15.5318 4.72628 15.4804 4.68743 15.4279 4.64963C15.3932 4.62338 15.3586 4.59819 15.3229 4.57404C15.2882 4.54884 15.2525 4.52469 15.2158 4.50054C15.1538 4.45855 15.0908 4.4176 15.0278 4.3798C14.9648 4.33991 14.9019 4.30211 14.8368 4.26431C14.7937 4.23911 14.7496 4.21496 14.7066 4.19187C14.6625 4.16667 14.6194 4.14357 14.5743 4.12152C14.6572 4.06588 14.7412 4.00918 14.8242 3.95354L15.0982 3.76875C15.1507 3.7341 15.2021 3.6984 15.2546 3.66376C15.2882 3.68056 15.3208 3.69735 15.3544 3.71415C15.3953 3.73515 15.4352 3.75615 15.4751 3.7782C15.5486 3.81705 15.621 3.85799 15.6924 3.89894C15.6956 3.90104 15.6987 3.90314 15.7019 3.90419C15.7628 3.93989 15.8226 3.97558 15.8814 4.01233C15.894 4.02073 15.9056 4.02808 15.9182 4.03543C15.9696 4.06798 16.0211 4.10157 16.0725 4.13517C16.1135 4.16142 16.1534 4.18872 16.1933 4.21706C16.273 4.27166 16.3528 4.32836 16.4305 4.38715C16.4694 4.41655 16.5082 4.44595 16.546 4.47535C16.6017 4.51839 16.6563 4.56249 16.7109 4.60764C16.7686 4.65488 16.8264 4.70423 16.8831 4.75357C16.9565 4.81867 17.0279 4.88376 17.0983 4.94991C17.1476 4.99611 17.1959 5.04335 17.2432 5.0927C17.2547 5.1032 17.2652 5.1137 17.2768 5.12525C17.3293 5.17879 17.3818 5.23339 17.4322 5.28903C17.4784 5.33838 17.5246 5.38982 17.5687 5.44127C17.5687 5.44127 17.5693 5.44197 17.5707 5.44337C17.5917 5.46647 17.6127 5.49062 17.6327 5.51477C17.6663 5.55466 17.6999 5.59456 17.7324 5.63446C17.7839 5.69745 17.8343 5.7615 17.8826 5.82659C17.9036 5.85284 17.9235 5.88014 17.9424 5.90744C17.9498 5.91583 17.9561 5.92528 17.9624 5.93368C17.9939 5.97673 18.0243 6.01978 18.0548 6.06387C18.0957 6.12267 18.1367 6.18251 18.1755 6.24341C18.1808 6.25076 18.185 6.25811 18.1902 6.26546C18.1913 6.26756 18.1923 6.26861 18.1934 6.27071C18.2521 6.361 18.3078 6.45234 18.3613 6.54579C18.3613 6.54579 18.3708 6.56259 18.3886 6.59408C18.396 6.60563 18.4023 6.61718 18.4086 6.62978C18.48 6.75577 18.5472 6.88491 18.6091 7.0172C18.6154 7.0298 18.6217 7.04345 18.6291 7.0571C18.6511 7.10434 18.6732 7.15159 18.6942 7.19989C18.7666 7.35947 18.8317 7.52011 18.8905 7.68075C18.9272 7.77944 18.9608 7.87918 18.9934 7.97893C19.0133 8.04192 19.0322 8.10492 19.0501 8.16791C19.0721 8.24351 19.0921 8.3191 19.111 8.39469C19.1215 8.43459 19.1309 8.47344 19.1393 8.51334C19.154 8.57318 19.1666 8.63408 19.1792 8.69497C19.1918 8.75482 19.2034 8.81466 19.2139 8.87556C19.2212 8.91545 19.2286 8.9564 19.2349 8.9963C19.2412 9.0362 19.2475 9.07609 19.2527 9.11599C19.258 9.15484 19.2632 9.19368 19.2685 9.23253Z" fill="#fff"/>
<path d="M9.5588 16.0193C9.28582 16.2041 9.01285 16.3888 8.73882 16.5726C8.68842 16.6062 8.63802 16.6408 8.58658 16.6755C7.41907 16.0739 6.42584 15.1667 5.7203 14.0675H5.71925C5.6615 13.9772 5.60481 13.8858 5.55126 13.7934C5.55126 13.7934 5.54181 13.7766 5.52501 13.7462C5.51031 13.72 5.49037 13.6843 5.46727 13.6402C5.39167 13.5047 5.32133 13.3672 5.25518 13.2265C5.23839 13.1908 5.22054 13.1551 5.20374 13.1194C5.19849 13.1057 5.19219 13.0931 5.18589 13.0806C5.12394 12.942 5.0662 12.8002 5.01265 12.6574C4.97591 12.5598 4.94231 12.46 4.90976 12.3603C4.77432 11.9424 4.67668 11.5088 4.62103 11.0637C4.67143 11.0269 4.72183 10.9891 4.77327 10.9513C4.96121 10.8106 5.14074 10.6783 5.31818 10.5492C5.39482 11.3429 5.62056 12.1062 5.96808 12.8055C5.96808 12.8055 5.96913 12.8055 5.96913 12.8076C5.99118 12.8517 6.01323 12.8958 6.03632 12.9388C6.77547 14.3415 8.01647 15.467 9.5588 16.0193Z" fill="#fff"/>
<path d="M19.259 11.071C18.9167 13.6233 17.2263 15.9489 14.6792 16.9453C12.9763 17.6162 11.2838 17.6288 9.78345 17.1647C9.90839 17.086 10.0333 17.0083 10.1572 16.9306C10.3557 16.8067 10.5541 16.6828 10.7515 16.5589C10.8229 16.5159 10.8953 16.4697 10.9678 16.4245C11.0024 16.4025 11.036 16.3815 11.0706 16.3594C11.3163 16.3846 11.5662 16.3951 11.8213 16.3909C14.6446 16.3563 16.8725 14.5021 17.7261 12.0999C17.8342 12.0285 17.9424 11.9561 18.0505 11.8847C18.4831 11.597 18.88 11.3293 19.259 11.071Z" fill="#fff"/>
<path d="M23.7349 6.32644C23.7349 6.35269 23.7349 6.37894 23.7317 6.40519C23.6971 6.8178 23.486 7.14538 23.2739 7.46246C22.7416 8.25619 21.9132 8.78745 21.1867 9.34181C20.563 9.78803 19.9352 10.2269 19.3021 10.6605C18.8296 10.9839 18.354 11.3041 17.8763 11.6222C15.5444 13.1751 13.1685 14.6618 10.7998 16.1579C10.7284 16.203 10.656 16.2482 10.5846 16.2923C10.1888 16.5401 9.79297 16.7868 9.39715 17.0346C7.86007 17.991 6.31984 18.9423 4.77331 19.8851C4.75336 19.8967 4.73131 19.903 4.70926 19.903C4.66831 19.903 4.62947 19.882 4.60637 19.8452C4.57172 19.7885 4.58957 19.7161 4.64312 19.6804C6.06996 18.7365 7.49365 17.7884 8.91419 16.834C9.25646 16.6052 9.59874 16.3742 9.93996 16.1432C12.0933 14.6901 14.2341 13.2202 16.3571 11.7262C16.6447 11.5235 16.9314 11.3199 17.218 11.1151C17.3419 11.0259 17.4668 10.9366 17.5907 10.8474C17.6842 10.7813 17.7766 10.7151 17.869 10.6479C17.9004 10.6259 17.9319 10.6028 17.9634 10.5807C18.0012 10.5534 18.039 10.5261 18.0768 10.4988C18.4884 10.2027 18.8979 9.90352 19.3042 9.59904C19.3378 9.57384 19.3703 9.5497 19.4039 9.5245C19.8134 9.22002 20.2208 8.91134 20.6229 8.59637C21.1699 8.1533 21.7484 7.72598 22.1904 7.21572C22.265 7.11913 22.3521 6.99419 22.4193 6.89025C22.4928 6.76846 22.5736 6.64247 22.6251 6.51543C22.0791 6.52908 21.5342 6.71911 21.0061 6.89865C20.8801 6.94169 20.7541 6.98579 20.6271 7.03199C20.5767 7.04879 20.5263 7.06769 20.4759 7.08553C20.4434 7.09708 20.4108 7.10863 20.3772 7.12123C20.2502 7.16638 20.1231 7.21362 19.995 7.26087C19.8019 7.33226 19.6087 7.40471 19.4165 7.4782C19.3388 7.5076 19.2611 7.537 19.1845 7.56745C19.1593 7.50655 18.8422 6.73696 18.6648 6.44193C19.3231 6.21515 19.9814 5.99782 20.6512 5.79413C21.2633 5.6083 21.8723 5.43611 22.5337 5.42246C22.5673 5.42036 22.6009 5.41931 22.6345 5.41931C22.6681 5.41931 22.7028 5.42036 22.7374 5.42246C22.7721 5.42561 22.8057 5.42876 22.8393 5.43296C22.8739 5.43821 22.9075 5.44346 22.9401 5.45081C22.9737 5.45816 23.0062 5.46551 23.0388 5.47496C23.0871 5.48966 23.1343 5.50645 23.1794 5.52535C23.2025 5.5348 23.2246 5.5453 23.2466 5.55685C23.2687 5.56735 23.2897 5.5789 23.3107 5.5915C23.3317 5.6041 23.3516 5.6167 23.3716 5.63035C23.3915 5.64399 23.4104 5.65869 23.4293 5.67339C23.4535 5.69334 23.4776 5.71539 23.4997 5.73744C23.5186 5.75529 23.5354 5.77418 23.5511 5.79413C23.5595 5.80463 23.5669 5.81408 23.5753 5.82458C23.5868 5.84033 23.5973 5.85608 23.6078 5.87288C23.612 5.87918 23.6162 5.88653 23.6204 5.89388C23.6246 5.90017 23.6288 5.90752 23.633 5.91487C23.6414 5.92852 23.6488 5.94322 23.6551 5.95792C23.6698 5.98732 23.6824 6.01882 23.6929 6.05136C23.6971 6.06606 23.7023 6.08181 23.7055 6.09756C23.7107 6.11541 23.7149 6.13326 23.7181 6.15111C23.7212 6.1637 23.7233 6.17525 23.7244 6.18785C23.7254 6.1889 23.7254 6.191 23.7254 6.19205C23.7286 6.21725 23.7317 6.2435 23.7328 6.26975C23.7338 6.28864 23.7349 6.30754 23.7349 6.32644Z" fill="#fff"/>
<path d="M19.1195 0.712451C17.7525 1.61643 16.3876 2.52356 15.0259 3.43804C14.9912 3.46114 14.9576 3.48424 14.923 3.50734C14.6962 3.65957 14.4705 3.81181 14.2447 3.963C14.2101 3.9861 14.1765 4.0092 14.1419 4.0323C14.1051 4.05644 14.0694 4.08164 14.0327 4.10579C13.9644 4.15199 13.8951 4.19818 13.8269 4.24543C13.5087 4.46066 13.1906 4.6759 12.8715 4.89218C12.4704 5.16411 12.0693 5.43709 11.6682 5.71112C11.6472 5.72582 11.6252 5.74052 11.6042 5.75521C11.1601 6.05864 10.717 6.36207 10.2739 6.66864C10.2613 6.67599 10.2488 6.68544 10.2362 6.69384C10.1438 6.75789 10.0503 6.82193 9.95792 6.88598C9.6083 7.12746 9.26078 7.36894 8.9122 7.61042C8.40929 7.96109 7.90638 8.31282 7.40452 8.66559C6.69792 9.1664 5.99238 9.66826 5.29313 10.1775C5.05585 10.3497 4.82067 10.5229 4.58548 10.6982C4.09937 11.0584 3.61641 11.4237 3.13974 11.7954C2.59274 12.2385 2.01423 12.6668 1.57116 13.176C1.49662 13.2726 1.41053 13.3986 1.34333 13.5026C1.26984 13.6233 1.18899 13.7493 1.1386 13.8763C1.68561 13.8627 2.22946 13.6727 2.75652 13.4942C3.41272 13.2674 4.06892 13.0228 4.71882 12.7718C4.74612 12.8401 5.0842 13.7031 5.24798 13.8984C4.53929 14.1441 3.83059 14.3803 3.1114 14.5976C2.49929 14.7835 1.89034 14.9567 1.22889 14.9693C1.19529 14.9714 1.16065 14.9725 1.126 14.9725C0.553792 14.9725 -0.0184138 14.648 0.0309325 13.9876C0.0655798 13.575 0.276614 13.2474 0.488697 12.9293C1.01996 12.1366 1.84939 11.6054 2.57594 11.051C3.24054 10.5754 3.91039 10.1082 4.58548 9.64727C4.83536 9.47613 5.0863 9.30604 5.33828 9.137C7.84653 7.45083 10.4094 5.84761 12.9628 4.23493C13.2169 4.07639 13.4699 3.91681 13.724 3.75932C13.9613 3.61023 14.1985 3.46219 14.4358 3.31415C15.9498 2.37132 17.4669 1.43585 18.9893 0.507717C19.0093 0.495118 19.0313 0.489868 19.0523 0.489868C19.0943 0.489868 19.1332 0.510867 19.1563 0.547614C19.1899 0.603259 19.1731 0.676754 19.1195 0.712451Z" fill="#fff"/>
</g>
<defs>
<clipPath id="clip0_1277_291">
<rect width="23.7072" height="19.413" fill="white" transform="translate(0.0276489 0.489868)"/>
</clipPath>
</defs>
</svg>
