<svg width="19" height="13" viewBox="0 0 19 13" fill="none" xmlns="http://www.w3.org/2000/svg">
<path d="M0 0.254902C0 0.114123 0.114954 0 0.256757 0H18.7432C18.885 0 19 0.114124 19 0.254902V2.80392C19 2.9447 18.885 3.05882 18.7432 3.05882H0.256757C0.114954 3.05882 0 2.9447 0 2.80392V0.254902Z" fill="white"/>
<path d="M0 5.22549C0 5.08471 0.114954 4.97059 0.256757 4.97059H18.7432C18.885 4.97059 19 5.08471 19 5.22549V7.77451C19 7.91529 18.885 8.02941 18.7432 8.02941H0.256757C0.114954 8.02941 0 7.91529 0 7.77451V5.22549Z" fill="white"/>
<path d="M0 10.1961C0 10.0553 0.114954 9.94118 0.256757 9.94118H18.7432C18.885 9.94118 19 10.0553 19 10.1961V12.7451C19 12.8859 18.885 13 18.7432 13H0.256757C0.114954 13 0 12.8859 0 12.7451V10.1961Z" fill="white"/>
</svg>
