<svg width="64" height="50" viewBox="0 0 64 50" fill="none" xmlns="http://www.w3.org/2000/svg">
<path d="M20.8001 34.375C20.5611 34.375 20.3221 34.4092 20.0941 34.4814C18.7981 34.8926 17.4351 35.1562 16.0001 35.1562C14.5651 35.1562 13.2021 34.8926 11.9051 34.4814C11.6771 34.4092 11.4391 34.375 11.2001 34.375C4.99415 34.375 -0.0328384 39.3047 0.000161547 45.373C0.0141615 47.9375 2.17316 50 4.80015 50H27.2001C29.8271 50 31.9861 47.9375 32.0001 45.373C32.0331 39.3047 27.0061 34.375 20.8001 34.375ZM16.0001 31.25C21.3021 31.25 25.6001 27.0527 25.6001 21.875C25.6001 16.6973 21.3021 12.5 16.0001 12.5C10.6981 12.5 6.40015 16.6973 6.40015 21.875C6.40015 27.0527 10.6981 31.25 16.0001 31.25ZM59.2 0H20.8001C18.1531 0 16.0001 2.17285 16.0001 4.84277V9.375C18.3421 9.375 20.5101 10.0371 22.4001 11.1133V6.25H57.6V34.375H51.2V28.125H38.4001V34.375H30.7761C32.6861 36.0049 34.0881 38.1572 34.7451 40.625H59.2C61.847 40.625 64 38.4521 64 35.7822V4.84277C64 2.17285 61.847 0 59.2 0Z" fill="white"/>
</svg>
