<svg width="17" height="17" viewBox="0 0 17 17" fill="none" xmlns="http://www.w3.org/2000/svg">
<g clip-path="url(#clip0_4290_3968)">
<path d="M4.30006 4.90267L4.81303 4.90395C4.64398 4.89131 4.4722 4.8901 4.30006 4.90267ZM4.20041 11.1054C4.3876 11.1228 4.57751 11.1249 4.76935 11.1116C4.78589 11.11 4.80322 11.1093 4.81937 11.1074L4.20041 11.1054Z" fill="#FFF000"/>
<path d="M11.215 11.1275C11.3848 11.1402 11.5578 11.141 11.7311 11.1288L11.215 11.1275Z" fill="#FFF000"/>
<path d="M7.33411 10.9339C7.33436 11.034 7.25379 11.1146 7.15371 11.1143L4.81969 11.107L4.20072 11.105L4.19915 11.105C3.41571 11.0329 2.68403 10.6982 2.13383 10.148C1.61602 9.6302 1.30151 8.95255 1.24774 8.23929C1.18298 7.39008 1.47881 6.5721 2.08004 5.93611C2.6514 5.33236 3.43729 4.96593 4.2921 4.90344C4.29722 4.90305 4.30274 4.90307 4.30825 4.90308L7.13871 4.91011C7.23878 4.91036 7.31975 4.99133 7.32 5.0914L7.32204 5.91248C7.32228 6.01256 7.24132 6.09352 7.14164 6.09288L6.71061 6.09181L4.73355 6.0869C4.73355 6.0869 4.72685 6.08649 4.7237 6.08648C4.61415 6.07833 4.50304 6.07805 4.38999 6.08605C3.22752 6.16787 2.34925 7.09511 2.4299 8.15673C2.46411 8.60517 2.66407 9.00636 2.97057 9.31286C3.38884 9.73113 4.00565 9.97536 4.67532 9.92975C4.67926 9.92976 4.6836 9.92937 4.68754 9.92938L7.09136 9.96254L7.1544 9.96348C7.2533 9.96491 7.33308 10.0455 7.33333 10.1448L7.33529 10.9343L7.33411 10.9339Z" fill="#FFF000"/>
<path d="M4.72794 6.0861L4.38911 6.08526C4.50374 6.07727 4.61682 6.07715 4.72794 6.0861Z" fill="#FFF000"/>
<path d="M11.739 11.1281C11.7338 11.1284 11.7283 11.1284 11.7228 11.1284L11.2146 11.1272L11.2138 11.1264L8.69969 11.1189C8.59962 11.1187 8.51904 11.0373 8.5184 10.9376L8.51683 10.1485C8.51658 10.0484 8.59715 9.96784 8.69723 9.96808L8.91471 9.96862L11.342 9.94747C11.4398 9.95322 11.5398 9.95268 11.6411 9.94545C12.8039 9.86323 13.6818 8.93559 13.6008 7.87437C13.5673 7.42593 13.3674 7.02474 13.0605 6.71785C12.6422 6.29957 12.0246 6.05534 11.3549 6.10096C11.3514 6.10134 11.3483 6.10134 11.3451 6.10133L8.91692 6.09569L8.68761 6.09513C8.58754 6.09488 8.50657 6.01391 8.50632 5.91383L8.50389 5.09314C8.50364 4.99307 8.58421 4.9125 8.68428 4.91275L11.2555 4.91913C11.2555 4.91913 11.2626 4.91915 11.2661 4.91876C11.7613 4.88414 12.2476 4.95469 12.6956 5.11813C13.1452 5.28235 13.556 5.54065 13.8968 5.88151C14.4146 6.39932 14.7292 7.07698 14.7833 7.79063C14.9129 9.4993 13.5474 10.9943 11.7382 11.1265L11.739 11.1281Z" fill="#FFF000"/>
<path d="M11.033 8.45702C11.0333 8.5571 10.9527 8.63767 10.8527 8.63742L9.48825 8.63442L8.51351 8.632L8.26175 8.63177L7.76177 8.63014L7.32917 8.62906L6.52897 8.62747L5.13108 8.624C5.031 8.62375 4.95003 8.54278 4.94979 8.44271L4.94813 7.61887C4.94789 7.51879 5.02845 7.43823 5.12853 7.43847L6.55873 7.44202L10.8509 7.45268C10.951 7.45293 11.0319 7.5339 11.0322 7.63397L11.0342 8.45742L11.033 8.45702Z" fill="#FFF000"/>
</g>
<defs>
<clipPath id="clip0_4290_3968">
<rect width="11.3346" height="11.3346" fill="white" transform="translate(8.01465) rotate(45)"/>
</clipPath>
</defs>
</svg>
