<svg width="28" height="41" viewBox="0 0 28 41" fill="none" xmlns="http://www.w3.org/2000/svg">
<path d="M25.2745 16.691V11.3841C25.1907 5.05053 20.1692 0 13.9573 0C7.74409 0 2.72373 5.05053 2.72373 11.2982V16.6051C1.19175 16.6051 0 17.8037 0 19.3445V38.2606C0 39.8014 1.19171 41 2.72373 41H25.2763C26.8082 41 28 39.8014 28 38.2606L27.9983 19.4287C27.9128 17.8879 26.7211 16.691 25.2745 16.691ZM15.1274 33.8942H12.8379C12.0869 33.8942 11.5137 33.2165 11.6361 32.4714L12.1707 29.1875C11.4014 28.6076 10.9589 27.5911 11.0863 26.5071C11.2271 25.3119 12.1121 24.3021 13.2669 23.9869C15.1978 23.4576 17.0215 24.9967 17.0215 26.878C17.0215 27.8187 16.5957 28.6751 15.9152 29.1892L16.336 32.5169C16.4281 33.2469 15.8599 33.8942 15.1274 33.8942ZM21.6157 16.691H6.29762V11.3841C6.29762 7.18986 9.70185 3.6799 13.9577 3.6799C18.128 3.6799 21.6178 7.10372 21.6178 11.3841L21.6157 16.691Z" fill="#FFF000"/>
</svg>
