<svg width="10" height="10" viewBox="0 0 10 10" fill="none" xmlns="http://www.w3.org/2000/svg">
<path d="M9.18711 0.0289128L2.9377 1.87453C2.81084 1.91438 2.7 1.99365 2.62128 2.10083C2.54257 2.208 2.50008 2.33748 2.5 2.47046V7.57642C2.29534 7.52674 2.0856 7.50105 1.875 7.49985C0.839844 7.49985 0 8.05965 0 8.74993C0 9.4402 0.839844 10 1.875 10C2.91016 10 3.75 9.4402 3.75 8.74993V4.1856L8.75 2.72067V6.32654C8.54537 6.27669 8.33561 6.25093 8.125 6.24978C7.08984 6.24978 6.25 6.80958 6.25 7.49985C6.25 8.19013 7.08984 8.74993 8.125 8.74993C9.16016 8.74993 10 8.19032 10 7.49985V0.624455C9.99991 0.526332 9.97672 0.42961 9.93231 0.342115C9.88789 0.254619 9.82351 0.178811 9.74436 0.120823C9.66521 0.0628355 9.57351 0.0242986 9.47671 0.00833124C9.3799 -0.00763613 9.28069 -0.000585398 9.18711 0.0289128Z" fill="white"/>
</svg>
