<svg width="57" height="64" viewBox="0 0 57 64" fill="none" xmlns="http://www.w3.org/2000/svg">
<path d="M28.2353 64C32.6874 64 36.2987 60.4188 36.2987 56H20.1719C20.1719 60.4188 23.7832 64 28.2353 64ZM55.3852 45.2863C52.9499 42.6912 48.3932 38.7875 48.3932 26C48.3932 16.2875 41.526 8.5125 32.2664 6.605V4C32.2664 1.79125 30.4613 0 28.2353 0C26.0092 0 24.2042 1.79125 24.2042 4V6.605C14.9446 8.5125 8.07737 16.2875 8.07737 26C8.07737 38.7875 3.52066 42.6912 1.08538 45.2863C0.329078 46.0925 -0.00621535 47.0562 8.71495e-05 48C0.0139527 50.05 1.63622 52 4.04629 52H52.4243C54.8344 52 56.4579 50.05 56.4705 48C56.4768 47.0562 56.1415 46.0913 55.3852 45.2863Z" fill="#FFF000"/>
</svg>
