<svg width="64" height="52" viewBox="0 0 64 52" fill="none" xmlns="http://www.w3.org/2000/svg">
<path d="M60.8 0H16C15.1513 0 14.3374 0.337142 13.7373 0.937258C13.1371 1.53737 12.8 2.35131 12.8 3.2V12.8H28.8V6.4H48V38.4H60.8C61.6487 38.4 62.4626 38.0629 63.0627 37.4627C63.6629 36.8626 64 36.0487 64 35.2V3.2C64 2.35131 63.6629 1.53737 63.0627 0.937258C62.4626 0.337142 61.6487 0 60.8 0ZM23.2 10.3C23.2 10.5387 23.1052 10.7676 22.9364 10.9364C22.7676 11.1052 22.5387 11.2 22.3 11.2H19.3C19.0613 11.2 18.8324 11.1052 18.6636 10.9364C18.4948 10.7676 18.4 10.5387 18.4 10.3V7.3C18.4 7.06131 18.4948 6.83239 18.6636 6.6636C18.8324 6.49482 19.0613 6.4 19.3 6.4H22.3C22.5387 6.4 22.7676 6.49482 22.9364 6.6636C23.1052 6.83239 23.2 7.06131 23.2 7.3V10.3ZM58.4 31.1C58.4 31.3387 58.3052 31.5676 58.1364 31.7364C57.9676 31.9052 57.7387 32 57.5 32H54.5C54.2613 32 54.0324 31.9052 53.8636 31.7364C53.6948 31.5676 53.6 31.3387 53.6 31.1V28.1C53.6 27.8613 53.6948 27.6324 53.8636 27.4636C54.0324 27.2948 54.2613 27.2 54.5 27.2H57.5C57.7387 27.2 57.9676 27.2948 58.1364 27.4636C58.3052 27.6324 58.4 27.8613 58.4 28.1V31.1ZM58.4 20.7C58.4 20.9387 58.3052 21.1676 58.1364 21.3364C57.9676 21.5052 57.7387 21.6 57.5 21.6H54.5C54.2613 21.6 54.0324 21.5052 53.8636 21.3364C53.6948 21.1676 53.6 20.9387 53.6 20.7V17.7C53.6 17.4613 53.6948 17.2324 53.8636 17.0636C54.0324 16.8948 54.2613 16.8 54.5 16.8H57.5C57.7387 16.8 57.9676 16.8948 58.1364 17.0636C58.3052 17.2324 58.4 17.4613 58.4 17.7V20.7ZM58.4 10.3C58.4 10.5387 58.3052 10.7676 58.1364 10.9364C57.9676 11.1052 57.7387 11.2 57.5 11.2H54.5C54.2613 11.2 54.0324 11.1052 53.8636 10.9364C53.6948 10.7676 53.6 10.5387 53.6 10.3V7.3C53.6 7.06131 53.6948 6.83239 53.8636 6.6636C54.0324 6.49482 54.2613 6.4 54.5 6.4H57.5C57.7387 6.4 57.9676 6.49482 58.1364 6.6636C58.3052 6.83239 58.4 7.06131 58.4 7.3V10.3ZM41.6 16H3.2C2.35131 16 1.53737 16.3371 0.937258 16.9373C0.337142 17.5374 0 18.3513 0 19.2L0 48C0 48.8487 0.337142 49.6626 0.937258 50.2627C1.53737 50.8629 2.35131 51.2 3.2 51.2H41.6C42.4487 51.2 43.2626 50.8629 43.8627 50.2627C44.4629 49.6626 44.8 48.8487 44.8 48V19.2C44.8 18.3513 44.4629 17.5374 43.8627 16.9373C43.2626 16.3371 42.4487 16 41.6 16ZM9.6 22.4C10.2329 22.4 10.8516 22.5877 11.3778 22.9393C11.9041 23.2909 12.3142 23.7907 12.5564 24.3754C12.7986 24.9601 12.862 25.6035 12.7385 26.2243C12.615 26.845 12.3103 27.4152 11.8627 27.8627C11.4152 28.3103 10.845 28.615 10.2243 28.7385C9.60355 28.862 8.96014 28.7986 8.37541 28.5564C7.79069 28.3142 7.29092 27.9041 6.9393 27.3778C6.58768 26.8516 6.4 26.2329 6.4 25.6C6.4 24.7513 6.73714 23.9374 7.33726 23.3373C7.93737 22.7371 8.75131 22.4 9.6 22.4ZM38.4 44.8H6.4V41.6L12.8 35.2L16 38.4L28.8 25.6L38.4 35.2V44.8Z" fill="#FFF000"/>
</svg>
