<svg width="20" height="20" viewBox="65 65 20 20" fill="none" xmlns="http://www.w3.org/2000/svg">
<g filter="url(#filter0_dddddd_4759_4243)">
<path d="M75 65C69.477 65 65 69.477 65 75C65 80.523 69.477 85 75 85C80.523 85 85 80.523 85 75C85 69.477 80.523 65 75 65ZM75 83.9589C70.0599 83.9589 66.0411 79.9401 66.0411 75C66.0411 70.0599 70.0599 66.0411 75 66.0411C79.9401 66.0411 83.9579 70.0599 83.9579 75C83.9579 79.9401 79.9391 83.9589 75 83.9589Z" fill="#FFF000"/>
<path d="M74.9998 67.0307C70.605 67.0307 67.0305 70.6062 67.0305 75C67.0305 79.3939 70.605 82.9693 74.9998 82.9693C79.3947 82.9693 82.9682 79.3939 82.9682 75C82.9682 70.6062 79.3937 67.0307 74.9998 67.0307ZM73.3413 79.0515C73.0721 79.0871 72.8197 79.2207 72.6703 79.2286C72.4664 79.2385 71.2779 78.4458 70.8168 77.3909C70.1181 75.7967 70.0211 74.5725 69.9439 73.9184C69.8361 73.0238 69.9459 72.4538 70.3645 71.9956C70.607 71.7304 70.9504 71.3929 71.3195 71.3236C71.7371 71.2445 71.936 71.4701 72.227 71.6571C72.5189 71.8451 72.6258 71.9352 72.7039 72.1618C72.7267 72.2291 72.7455 72.3805 72.6584 72.434C72.6317 72.4508 72.6129 72.4765 72.6129 72.5082C72.6139 72.6161 72.5367 72.7566 72.4179 72.7754C72.3873 72.7803 72.3635 72.807 72.3606 72.8387C72.3467 72.9713 72.1725 73.0752 72.0726 73.0505C72.1151 73.2078 71.8717 73.2494 71.7866 73.2544C71.7242 73.2573 71.6381 73.2563 71.5649 73.2375C71.558 73.2375 71.4857 73.2088 71.4452 73.1633C71.4204 73.1346 71.3769 73.1307 71.3462 73.1534C71.2126 73.2514 71.0355 73.2286 71.1295 73.4364C71.2146 73.6264 71.4867 74.3746 72.0785 74.8714C72.6258 75.3325 72.8999 75.7967 73.0929 76.1905C73.0988 76.2024 73.1008 76.2143 73.1008 76.2281C73.0958 76.4092 73.0929 76.6052 73.0948 76.807C73.1037 77.7729 73.2077 78.4894 73.4046 78.9426C73.4254 78.9911 73.3927 79.0446 73.3413 79.0515ZM77.8608 76.813C77.6174 77.3672 76.8504 78.7576 75.3056 78.6962C74.7623 78.6754 74.416 78.5963 74.1656 78.5547C74.1389 78.5498 74.1161 78.5329 74.1052 78.5082C73.8717 77.951 73.9459 76.8832 74.037 76.148C74.037 76.145 74.0369 76.141 74.0389 76.1381C74.1597 75.6264 74.5318 74.7388 75.939 74.9258C75.9677 74.9298 75.9934 74.9496 76.0033 74.9773C76.0785 75.1752 76.1874 75.4186 76.3398 75.6621C76.7188 76.2628 77.2166 76.6161 77.7965 76.7021C77.8489 76.7101 77.8816 76.7645 77.8608 76.813ZM79.0186 76.1876C79.0186 76.1876 79.0177 76.1925 79.0147 76.2014C78.2626 76.2182 77.6005 75.862 77.0444 75.1386C76.7801 74.7952 76.5971 74.4359 76.4852 74.1836C76.4823 74.1767 76.4803 74.1697 76.4793 74.1618C76.3645 73.4562 76.9702 72.3459 78.6248 72.2588C79.9162 72.1905 80.417 73.3038 80.4704 74.3152C80.5525 75.8729 79.0186 76.1876 79.0186 76.1876Z" fill="#FFF000"/>
</g>
</svg>
