<svg width="64" height="64" viewBox="0 0 64 64" fill="none" xmlns="http://www.w3.org/2000/svg">
<circle cx="32" cy="32" r="32" fill="black"/>
<path d="M32.125 2C29.4169 2 26.8227 2.60087 25.1136 4.50556C23.4045 6.41026 23.3496 8.44104 23.2507 9.67664C23.1518 10.9122 23.0695 11.6814 22.8787 12.1578C22.688 12.6342 22.5306 12.9982 21.3371 13.674C20.1437 14.3498 19.744 14.3011 19.2279 14.2249C18.7118 14.1488 17.9919 13.8344 16.8514 13.3006C15.711 12.7668 13.8899 11.7978 11.3535 12.2972C8.81711 12.7966 6.98941 14.6995 5.63533 16.9998C4.28126 19.3001 3.51504 21.8041 4.34229 24.2081C5.16952 26.6122 6.93537 27.6746 7.97693 28.3764C9.01849 29.0782 9.65614 29.5324 9.98144 29.9327C10.3067 30.3329 10.5497 30.6484 10.5497 32C10.5497 33.3516 10.3067 33.6671 9.98144 34.0673C9.65614 34.4676 9.01849 34.9218 7.97693 35.6236C6.93537 36.3254 5.16952 37.3878 4.34229 39.7919C3.51504 42.1959 4.28126 44.6999 5.63533 47.0002C6.98941 49.3005 8.81711 51.2034 11.3535 51.7028C13.8899 52.2022 15.711 51.2332 16.8514 50.6994C17.9919 50.1656 18.7118 49.8512 19.2279 49.7751C19.744 49.6989 20.1437 49.6502 21.3371 50.326C22.5306 51.0018 22.688 51.3658 22.8787 51.8422C23.0695 52.3186 23.1518 53.0878 23.2507 54.3234C23.3496 55.559 23.4045 57.5897 25.1136 59.4944C26.8227 61.3991 29.4169 62 32.125 62C34.8331 62 37.4273 61.3991 39.1364 59.4944C40.8455 57.5897 40.9004 55.559 40.9993 54.3234C41.0982 53.0878 41.1805 52.3186 41.3713 51.8422C41.562 51.3658 41.7194 51.0018 42.9129 50.326C44.1063 49.6502 44.506 49.6989 45.0221 49.7751C45.5381 49.8512 46.2581 50.1656 47.3986 50.6994C48.539 51.2332 50.3601 52.2022 52.8965 51.7028C55.4329 51.2034 57.2606 49.3005 58.6147 47.0002C59.9687 44.6999 60.735 42.1959 59.9077 39.7919C59.0805 37.3878 57.3146 36.3254 56.2731 35.6236C55.2315 34.9218 54.5939 34.4676 54.2686 34.0673C53.9433 33.6671 53.7003 33.3516 53.7003 32C53.7003 30.6484 53.9433 30.3329 54.2686 29.9327C54.5939 29.5324 55.2315 29.0782 56.2731 28.3764C57.3146 27.6746 59.0805 26.6122 59.9077 24.2081C60.735 21.8041 59.9687 19.3001 58.6147 16.9998C57.2606 14.6995 55.4329 12.7966 52.8965 12.2972C50.3601 11.7978 48.539 12.7668 47.3986 13.3006C46.2581 13.8344 45.5381 14.1488 45.0221 14.2249C44.506 14.3011 44.1063 14.3498 42.9129 13.674C41.7194 12.9982 41.562 12.6342 41.3713 12.1578C41.1805 11.6814 41.0982 10.9122 40.9993 9.67664C40.9004 8.44104 40.8455 6.41026 39.1364 4.50556C37.4273 2.60087 34.8331 2 32.125 2ZM32.1274 18.9996C39.5003 18.9996 45.4026 24.7775 45.4026 32C45.4026 39.2225 39.5003 45.0004 32.1274 45.0004C24.7545 45.0004 18.8522 39.2225 18.8522 32C18.8522 24.7775 24.7545 18.9996 32.1274 18.9996Z" fill="#FFF000"/>
<path d="M32.125 24.002C27.6504 24.002 23.9553 27.622 23.9553 32C23.9553 36.3779 27.6504 39.998 32.125 39.998C36.5996 39.998 40.2946 36.3779 40.2946 32C40.2946 27.622 36.5996 24.002 32.125 24.002Z" fill="#FFF000"/>
</svg>
