<svg width="56" height="64" viewBox="0 0 56 64" fill="none" xmlns="http://www.w3.org/2000/svg">
<path d="M55.9979 26.2454C50.4934 26.2586 45.1238 24.5419 40.6478 21.3379V43.6836C40.6463 47.8222 39.3813 51.8618 37.022 55.2621C34.6627 58.6624 31.3215 61.2614 27.4452 62.7115C23.5689 64.1617 19.3423 64.3939 15.3305 63.377C11.3187 62.3602 7.71293 60.1428 4.99536 57.0214C2.2778 53.8999 0.577951 50.0232 0.123121 45.9096C-0.331708 41.7961 0.480158 37.6416 2.45016 34.0019C4.42016 30.3622 7.4544 27.4106 11.1472 25.5419C14.8399 23.6732 19.0152 22.9764 23.1146 23.5447V34.7838C21.2387 34.1937 19.2243 34.2115 17.3591 34.8346C15.4939 35.4577 13.8732 36.6542 12.7286 38.2533C11.584 39.8524 10.9739 41.7722 10.9855 43.7387C10.997 45.7052 11.6297 47.6178 12.7931 49.2033C13.9565 50.7888 15.5911 51.9661 17.4635 52.5672C19.336 53.1682 21.3504 53.1623 23.2193 52.5501C25.0881 51.938 26.7157 50.751 27.8697 49.1587C29.0237 47.5664 29.6451 45.6501 29.645 43.6836V0H40.6478C40.6402 0.92916 40.718 1.85705 40.8804 2.77195C41.2627 4.81432 42.0577 6.75722 43.2166 8.48182C44.3756 10.2064 45.8742 11.6764 47.6208 12.802C50.1057 14.445 53.019 15.3208 55.9979 15.3201V26.2454Z" fill="white"/>
</svg>
