<svg width="64" height="64" viewBox="0 0 64 64" fill="none" xmlns="http://www.w3.org/2000/svg">
<path d="M43.7995 40.0001C43.7986 40.3689 43.5946 40.7068 43.2696 40.8799C39.2538 43.0409 34.9552 44.6296 30.4999 45.6002H29.8701L29.8697 40.9002C29.8955 39.0688 28.9931 37.3484 27.4711 36.3292C25.9496 35.3099 24.0151 35.1298 22.3315 35.8508C20.6475 36.5713 19.4426 38.0956 19.1301 39.9002C17.7871 40.025 16.5391 40.6465 15.6308 41.6437C14.7225 42.6408 14.2192 43.9414 14.2202 45.2899V45.6402C14.1346 45.6495 14.0503 45.6692 13.9702 45.7001C9.27718 44.7692 4.74798 43.1483 0.529919 40.8902C0.201667 40.7152 -0.00273027 40.3722 2.75605e-05 40.0003C2.75605e-05 30.7003 9.82991 23.1304 21.9 23.1304C33.9696 23.1304 43.8 30.7104 43.8 40.0003L43.7995 40.0001Z" fill="#FFF000"/>
<path d="M32.4591 10.5601C32.4591 16.3921 27.7316 21.1198 21.8995 21.1198C16.067 21.1198 11.3394 16.3922 11.3394 10.5601C11.3394 4.72814 16.0669 0 21.8995 0C27.7315 0 32.4591 4.72802 32.4591 10.5601Z" fill="#FFF000"/>
<path d="M63.9999 50.7402C63.9972 51.5721 63.6657 52.369 63.0773 52.9573C62.489 53.5457 61.6921 53.8771 60.8598 53.8799H59.7498V56.15C59.7498 57.0551 59.3912 57.9234 58.7517 58.5647C58.1127 59.2055 57.2454 59.5674 56.3398 59.5697C55.8532 59.5706 55.3716 59.4647 54.9301 59.2598V60.5898C54.8661 61.7661 54.2018 62.8267 53.1715 63.3972C52.1407 63.9676 50.8894 63.9676 49.8587 63.3972C48.8283 62.8268 48.1635 61.766 48.1 60.5898V53.8798H27.87V60.5898C27.87 61.808 27.22 62.9336 26.1653 63.5432C25.1101 64.1523 23.81 64.1523 22.7552 63.5432C21.7 62.9336 21.05 61.808 21.05 60.5898V59.2598C20.6052 59.4656 20.1205 59.5715 19.6302 59.5697C18.7246 59.5674 17.8573 59.2055 17.2182 58.5647C16.5792 57.9234 16.2201 57.0551 16.2201 56.15V53.8799H15.1102C13.9882 53.8799 12.952 53.2814 12.3908 52.3101C11.83 51.3387 11.83 50.1417 12.3908 49.1698C12.952 48.1984 13.9883 47.5999 15.1102 47.5999H16.2201V45.3298C16.2201 44.4256 16.5792 43.5583 17.2187 42.9188C17.8582 42.2793 18.7255 41.9198 19.6301 41.9198C20.1204 41.918 20.6052 42.0239 21.05 42.2301V40.9001C21.05 39.6819 21.7 38.5558 22.7552 37.9468C23.8099 37.3377 25.11 37.3377 26.1653 37.9468C27.22 38.5558 27.87 39.6819 27.87 40.9001V47.6H48.1V40.9001C48.0494 39.9623 48.3863 39.0448 49.0323 38.363C49.6782 37.6817 50.5759 37.2954 51.515 37.2954C52.4541 37.2954 53.3519 37.6817 53.9978 38.363C54.6437 39.0448 54.9807 39.9623 54.93 40.9001V42.2301C55.3715 42.0252 55.8531 41.9194 56.3397 41.9198C57.2443 41.9198 58.1117 42.2794 58.7511 42.9188C59.3906 43.5583 59.7497 44.4256 59.7497 45.3298V47.5999H60.8597C61.692 47.6027 62.4889 47.9342 63.0772 48.5225C63.6656 49.1109 63.9971 49.9078 63.9998 50.7401L63.9999 50.7402Z" fill="#FFF000"/>
</svg>
