<svg width="64" height="52" viewBox="0 0 64 52" fill="none" xmlns="http://www.w3.org/2000/svg">
<path d="M63.0637 36.4921L54.0332 27.4716C52.8331 26.2715 51.203 25.6015 49.5029 25.6015H41.5724C39.8023 25.6015 38.3722 27.0316 38.3722 28.8017V36.7222C38.3722 38.4223 39.0423 40.0423 40.2424 41.2424L49.2729 50.2629C50.523 51.513 52.5531 51.513 53.8032 50.2629L63.0537 41.0124C64.3138 39.7623 64.3138 37.7422 63.0637 36.4921ZM44.7826 34.392C43.4525 34.392 42.3825 33.322 42.3825 31.9919C42.3825 30.6618 43.4525 29.5917 44.7826 29.5917C46.1127 29.5917 47.1828 30.6618 47.1828 31.9919C47.1828 33.312 46.1127 34.392 44.7826 34.392ZM22.4013 25.5915C29.4717 25.5915 35.2021 19.8612 35.2021 12.7907C35.2021 5.73034 29.4717 0 22.4013 0C15.3309 0 9.60056 5.73034 9.60056 12.8007C9.60056 19.8612 15.3309 25.5915 22.4013 25.5915ZM35.1821 36.7122V29.4017C33.962 29.0417 32.6919 28.7817 31.3618 28.7817H29.6917C27.4716 29.8017 25.0015 30.3818 22.4013 30.3818C19.8012 30.3818 17.341 29.8017 15.1109 28.7817H13.4408C6.02035 28.7917 0 34.812 0 42.2325V46.3927C0 49.0429 2.15013 51.193 4.80028 51.193H40.0023C41.5524 51.193 42.9125 50.443 43.7926 49.3029L37.9922 43.5025C36.1821 41.6924 35.1821 39.2823 35.1821 36.7122Z" fill="#FFF000"/>
</svg>
