<svg width="64" height="65" viewBox="0 0 64 65" fill="none" xmlns="http://www.w3.org/2000/svg">
<path d="M43.4281 19.6169C41.5568 8.09195 37.143 0 32.0065 0C26.8699 0 22.4561 8.09195 20.5848 19.6169H43.4281ZM19.6169 32.0065C19.6169 34.8715 19.7717 37.6205 20.0428 40.2662H43.9573C44.2283 37.6205 44.3831 34.8715 44.3831 32.0065C44.3831 29.1414 44.2283 26.3924 43.9573 23.7467H20.0428C19.7717 26.3924 19.6169 29.1414 19.6169 32.0065ZM61.5221 19.6169C57.831 10.8538 50.3585 4.07824 41.1309 1.34221C44.2799 5.70438 46.4481 12.2734 47.5838 19.6169H61.5221ZM22.8691 1.34221C13.6544 4.07824 6.16899 10.8538 2.49082 19.6169H16.4291C17.5519 12.2734 19.7201 5.70438 22.8691 1.34221ZM62.903 23.7467H48.1C48.371 26.4569 48.5259 29.2317 48.5259 32.0065C48.5259 34.7812 48.371 37.556 48.1 40.2662H62.8901C63.5999 37.6205 64 34.8715 64 32.0065C64 29.1414 63.5999 26.3924 62.903 23.7467ZM15.487 32.0065C15.487 29.2317 15.6419 26.4569 15.9129 23.7467H1.1099C0.412987 26.3924 0 29.1414 0 32.0065C0 34.8715 0.412987 37.6205 1.1099 40.2662H15.9C15.6419 37.556 15.487 34.7812 15.487 32.0065ZM20.5848 44.396C22.4561 55.9209 26.8699 64.0129 32.0065 64.0129C37.143 64.0129 41.5568 55.9209 43.4281 44.396H20.5848ZM41.1438 62.6707C50.3585 59.9347 57.8439 53.1591 61.535 44.396H47.5967C46.461 51.7395 44.2928 58.3085 41.1438 62.6707ZM2.49082 44.396C6.18189 53.1591 13.6544 59.9347 22.882 62.6707C19.733 58.3085 17.5648 51.7395 16.4291 44.396H2.49082Z" fill="white"/>
</svg>
