<svg width="17" height="17" viewBox="0 0 17 17" fill="none" xmlns="http://www.w3.org/2000/svg">
<path d="M9.76744 13.1611C9.52589 13.3934 9.2696 13.6239 8.99855 13.8525L9.07322 13.8401L9.30693 13.7986C9.51878 13.7557 9.72832 13.7022 9.93477 13.6382L9.98179 13.6244L10.1298 13.941L10.2957 14.2978L10.1477 14.3448C9.91675 14.4166 9.68228 14.4766 9.44522 14.5246C9.20737 14.5735 8.96536 14.6099 8.7192 14.6339C8.47304 14.6574 8.22274 14.6698 7.96967 14.6698C7.7166 14.6698 7.46906 14.6574 7.2229 14.6339C6.97674 14.6104 6.73612 14.573 6.49688 14.5246C6.2634 14.4791 6.03258 14.421 5.80542 14.3504C5.57789 14.2801 5.35404 14.1984 5.13472 14.1056H5.11674L5.10429 14.0973C4.88856 14.0051 4.67882 13.9032 4.47507 13.7917C4.26349 13.6783 4.0602 13.5538 3.86106 13.4225C3.66918 13.2945 3.48451 13.1559 3.3079 13.0076C3.12398 12.8568 2.94973 12.6978 2.7824 12.5319C2.61637 12.3686 2.45941 12.1964 2.31221 12.016C2.16445 11.8351 2.02598 11.6468 1.89734 11.4518C1.76175 11.255 1.63621 11.0515 1.52119 10.842C1.48109 10.7687 1.44237 10.694 1.40503 10.6193H8.76207C8.77409 10.7603 8.80193 10.8994 8.84505 11.0342C8.85749 11.0715 8.86994 11.1102 8.88515 11.1476L8.97089 11.3578H8.34305V13.4473C8.74133 13.1154 9.10918 12.7822 9.44937 12.4475C9.55586 12.6854 9.66511 12.9232 9.77435 13.1611H9.76744ZM0.829742 9.00823L0 5.6699H1.20036L1.58204 7.70553H1.60832L2.03425 5.6699H3.20004L3.64395 7.68756H3.66884L4.03531 5.6699H5.23429L4.40454 9.00961H3.10462L2.63443 7.21184H2.59986L2.13105 9.00961L0.829742 9.00823ZM6.18572 9.00823L5.35736 5.6699H6.55634L6.9394 7.70553H6.96568L7.39161 5.6699H8.5574L9.00131 7.68756H9.0262L9.39129 5.6699H10.5917L9.76191 9.00961H8.4606L7.99179 7.21184H7.95722L7.48703 9.00961L6.18572 9.00823ZM11.5431 9.00823L10.7147 5.6699H11.9137L12.2968 7.70553H12.3217L12.749 5.6699H13.9148L14.3587 7.68756H14.3822L14.7487 5.6699H15.949L15.1193 9.00961H13.818L13.3492 7.21184H13.3146L12.8444 9.00961L11.5431 9.00823ZM16.1233 15.9905C16.087 16.0257 16.0449 16.0542 15.9988 16.0749C15.9528 16.0952 15.9037 16.1078 15.8536 16.1122C15.7962 16.1169 15.7384 16.1103 15.6835 16.0928C15.6287 16.0759 15.578 16.0482 15.5341 16.0112L14.302 14.9658L13.8871 16.0043C13.8527 16.0878 13.8106 16.1679 13.7613 16.2436C13.7155 16.312 13.6616 16.3747 13.6008 16.4303C13.547 16.4858 13.4813 16.5282 13.4086 16.5545C13.3358 16.5807 13.2581 16.5899 13.1813 16.5815C13.1044 16.5731 13.0305 16.5473 12.9652 16.506C12.8999 16.4646 12.8448 16.409 12.8043 16.3431C12.7658 16.289 12.7329 16.2311 12.7061 16.1703C11.9635 14.3144 10.9692 12.4641 10.2335 10.6041C10.2111 10.5492 10.204 10.4892 10.2128 10.4306C10.2216 10.3719 10.246 10.3167 10.2835 10.2708C10.321 10.2248 10.3701 10.1898 10.4258 10.1693C10.4815 10.1489 10.5416 10.1438 10.5999 10.1547C12.3825 10.4852 14.6906 11.2375 16.5036 11.7187C17.0664 11.8667 17.1577 12.3631 16.7414 12.7476C16.6756 12.8092 16.6032 12.8634 16.5257 12.9094C16.2062 13.0906 15.8826 13.2994 15.5673 13.4916L16.794 14.5426C16.8378 14.5813 16.8735 14.6283 16.8991 14.6809V14.6892C16.923 14.7381 16.9371 14.7912 16.9406 14.8455C16.9436 14.9005 16.9376 14.9556 16.9226 15.0086C16.9059 15.0624 16.8802 15.1129 16.8465 15.158C16.6238 15.4476 16.3851 15.7246 16.1316 15.9877L16.1233 15.9905ZM15.8066 15.5825L16.3998 14.8911C16.1385 14.6657 15.0239 13.7972 14.9022 13.587C14.8692 13.5293 14.8601 13.4609 14.8769 13.3965C14.8937 13.3322 14.935 13.2769 14.992 13.2427C15.3793 13.0269 15.8799 12.7255 16.2477 12.4793C16.2939 12.4521 16.3374 12.4206 16.3777 12.3853C16.4083 12.3579 16.4353 12.3268 16.4579 12.2926L16.4745 12.2608L16.4413 12.2415C16.4155 12.2299 16.3886 12.2207 16.3611 12.2138L10.8447 10.7465L13.1625 15.9684C13.174 15.9938 13.1874 16.0183 13.2026 16.0417L13.2261 16.0721L13.2551 16.0513C13.2858 16.024 13.3124 15.9923 13.3339 15.9573C13.3624 15.9137 13.3865 15.8674 13.4059 15.819C13.5801 15.3931 13.7765 14.8123 13.9798 14.4195L14.0047 14.385C14.0262 14.3596 14.0525 14.3388 14.082 14.3236C14.1116 14.3084 14.1439 14.2992 14.177 14.2965C14.2102 14.2938 14.2435 14.2977 14.2751 14.3079C14.3068 14.3181 14.3361 14.3344 14.3614 14.3559L15.8121 15.5853L15.8066 15.5825ZM6.95462 13.8567C6.51085 13.4814 6.08841 13.0815 5.68926 12.6591C5.30108 12.2509 4.9442 11.8141 4.62166 11.3522H2.72985C2.80729 11.456 2.88888 11.5555 2.97324 11.6523C3.07834 11.774 3.18897 11.893 3.30375 12.0077C3.45403 12.1589 3.60984 12.3 3.77118 12.4309C3.93298 12.5643 4.10145 12.6894 4.27593 12.8057C4.45167 12.9257 4.63353 13.0365 4.8208 13.1376C5.00519 13.2399 5.20156 13.3321 5.40991 13.4142H5.42098H5.42928C5.62426 13.4957 5.8234 13.569 6.02531 13.6313C6.23059 13.6953 6.43927 13.748 6.65038 13.7889C6.72782 13.8041 6.80665 13.818 6.88409 13.8304L6.95462 13.8415V13.8567ZM2.72155 3.31897H4.73091C5.05132 2.86261 5.4015 2.4279 5.77915 2.01765C6.16863 1.59151 6.57941 1.18534 7.00993 0.800701L6.90345 0.815913C6.81633 0.829742 6.73059 0.844953 6.64623 0.862931C6.43344 0.905637 6.22296 0.959179 6.01563 1.02335C5.80872 1.08696 5.60557 1.16222 5.40715 1.24876C5.2034 1.33542 5.00795 1.42762 4.8208 1.52534C4.63365 1.62307 4.44926 1.73278 4.26764 1.85447C4.09315 1.97077 3.92468 2.09585 3.76288 2.22924C3.60108 2.36061 3.44619 2.50582 3.29546 2.65241C3.18068 2.76719 3.07004 2.88612 2.96494 3.00781C2.8792 3.106 2.79623 3.20695 2.7174 3.31205L2.72155 3.31897ZM8.94461 0.806232C9.39544 1.21096 9.80432 1.61477 10.1712 2.01765C10.5489 2.42752 10.8987 2.86226 11.2181 3.31897H13.2233C13.1459 3.21663 13.0643 3.11568 12.9799 3.01888C12.8762 2.89856 12.7642 2.77963 12.648 2.66347C12.4978 2.5132 12.3424 2.37214 12.182 2.2403C12.0203 2.1068 11.8518 1.98172 11.6772 1.86554C11.503 1.74845 11.3214 1.63874 11.1324 1.5364C10.9434 1.43407 10.747 1.34095 10.5432 1.25706L10.5308 1.24461C10.3344 1.16302 10.1353 1.08973 9.93339 1.0275C9.72622 0.963872 9.5157 0.911704 9.30278 0.871229C9.21428 0.853251 9.12716 0.838039 9.0428 0.829742L8.946 0.81453L8.94461 0.806232ZM6.49964 0.145205C6.7375 0.0963422 6.97951 0.0599258 7.22567 0.0359555C7.46767 0.0124461 7.72213 0 7.97382 0C8.2255 0 8.47443 0.0124461 8.72197 0.0359555C8.96951 0.0594648 9.20875 0.0968032 9.44799 0.145205C9.68145 0.191329 9.91227 0.249956 10.1394 0.320833C10.3684 0.390977 10.5936 0.472673 10.8143 0.565607H10.8295L10.842 0.572522C11.0577 0.670247 11.2697 0.774425 11.4781 0.885058C11.6883 0.999839 11.893 1.12292 12.0893 1.25291C12.281 1.38124 12.4656 1.51973 12.6425 1.66778C12.8269 1.81806 13.0016 1.97663 13.1666 2.1435C13.3323 2.30705 13.4893 2.47923 13.6368 2.65932C13.7846 2.84024 13.923 3.02856 14.0517 3.22355C14.19 3.41992 14.3061 3.62182 14.4195 3.83064C14.4596 3.90393 14.4984 3.97861 14.5357 4.05329H1.39811C1.43684 3.97861 1.47556 3.90255 1.51566 3.82926C1.62906 3.62044 1.75214 3.41439 1.88075 3.22355C2.00936 3.03271 2.14765 2.84463 2.29562 2.67038C2.44359 2.49614 2.60539 2.31083 2.77134 2.14488C2.93524 1.97956 3.1074 1.82263 3.28716 1.6747C3.46865 1.52704 3.65742 1.38858 3.85277 1.25982C4.04776 1.12153 4.25104 1.00537 4.45848 0.893355C4.66591 0.78134 4.89409 0.670708 5.11674 0.57667C5.34249 0.480292 5.57331 0.396272 5.80819 0.324982C6.03554 0.253591 6.26631 0.19359 6.49964 0.145205ZM8.34305 1.25982V3.31897H10.3109C10.035 2.96298 9.741 2.62141 9.43001 2.29562C9.10088 1.95174 8.73856 1.60509 8.34305 1.25568V1.25982ZM7.60596 13.4473V11.3522H5.53161C5.81748 11.7192 6.12552 12.0684 6.45401 12.3977C6.82015 12.7667 7.20462 13.117 7.60596 13.4473ZM7.60596 3.31897V1.25982C7.21045 1.60832 6.84813 1.95496 6.519 2.29977C6.20813 2.62421 5.91411 2.96439 5.63809 3.31897H7.60596Z" fill="white"/>
</svg>
